<?xml version="1.0" encoding="UTF-8" standalone="no"?>
<!-- Created with Inkscape (http://www.inkscape.org/) -->

<svg
   xmlns:dc="http://purl.org/dc/elements/1.1/"
   xmlns:cc="http://creativecommons.org/ns#"
   xmlns:rdf="http://www.w3.org/1999/02/22-rdf-syntax-ns#"
   xmlns:svg="http://www.w3.org/2000/svg"
   xmlns="http://www.w3.org/2000/svg"
   xmlns:sodipodi="http://sodipodi.sourceforge.net/DTD/sodipodi-0.dtd"
   xmlns:inkscape="http://www.inkscape.org/namespaces/inkscape"
   width="210mm"
   height="297mm"
   viewBox="0 0 210 297"
   version="1.1"
   id="svg8"
   inkscape:version="0.92.4 (5da689c313, 2019-01-14)"
   sodipodi:docname="drop-upgrades.svg">
  <defs
     id="defs2">
    <inkscape:path-effect
       effect="simplify"
       id="path-effect1029"
       is_visible="true"
       steps="1"
       threshold="0.000408163"
       smooth_angles="360"
       helper_size="0"
       simplify_individual_paths="false"
       simplify_just_coalesce="false"
       simplifyindividualpaths="false"
       simplifyJustCoalesce="false" />
    <inkscape:path-effect
       effect="simplify"
       id="path-effect1025"
       is_visible="true"
       steps="1"
       threshold="0.000408163"
       smooth_angles="360"
       helper_size="0"
       simplify_individual_paths="false"
       simplify_just_coalesce="false"
       simplifyindividualpaths="false"
       simplifyJustCoalesce="false" />
    <inkscape:path-effect
       effect="simplify"
       id="path-effect1013"
       is_visible="true"
       steps="1"
       threshold="0.000408163"
       smooth_angles="360"
       helper_size="0"
       simplify_individual_paths="false"
       simplify_just_coalesce="false"
       simplifyindividualpaths="false"
       simplifyJustCoalesce="false" />
    <inkscape:path-effect
       effect="simplify"
       id="path-effect1009"
       is_visible="true"
       steps="1"
       threshold="0.000408163"
       smooth_angles="360"
       helper_size="0"
       simplify_individual_paths="false"
       simplify_just_coalesce="false"
       simplifyindividualpaths="false"
       simplifyJustCoalesce="false" />
    <inkscape:path-effect
       effect="simplify"
       id="path-effect1005"
       is_visible="true"
       steps="1"
       threshold="0.000408163"
       smooth_angles="360"
       helper_size="0"
       simplify_individual_paths="false"
       simplify_just_coalesce="false"
       simplifyindividualpaths="false"
       simplifyJustCoalesce="false" />
    <inkscape:path-effect
       effect="simplify"
       id="path-effect1001"
       is_visible="true"
       steps="1"
       threshold="0.000408163"
       smooth_angles="360"
       helper_size="0"
       simplify_individual_paths="false"
       simplify_just_coalesce="false"
       simplifyindividualpaths="false"
       simplifyJustCoalesce="false" />
    <inkscape:path-effect
       effect="simplify"
       id="path-effect913"
       is_visible="true"
       steps="1"
       threshold="0.000408163"
       smooth_angles="360"
       helper_size="0"
       simplify_individual_paths="false"
       simplify_just_coalesce="false"
       simplifyindividualpaths="false"
       simplifyJustCoalesce="false" />
    <inkscape:path-effect
       effect="simplify"
       id="path-effect909"
       is_visible="true"
       steps="1"
       threshold="0.000408163"
       smooth_angles="360"
       helper_size="0"
       simplify_individual_paths="false"
       simplify_just_coalesce="false"
       simplifyindividualpaths="false"
       simplifyJustCoalesce="false" />
    <inkscape:path-effect
       effect="simplify"
       id="path-effect897"
       is_visible="true"
       steps="1"
       threshold="0.000408163"
       smooth_angles="360"
       helper_size="0"
       simplify_individual_paths="false"
       simplify_just_coalesce="false"
       simplifyindividualpaths="false"
       simplifyJustCoalesce="false" />
    <inkscape:path-effect
       effect="simplify"
       id="path-effect893"
       is_visible="true"
       steps="1"
       threshold="0.000408163"
       smooth_angles="360"
       helper_size="0"
       simplify_individual_paths="false"
       simplify_just_coalesce="false"
       simplifyindividualpaths="false"
       simplifyJustCoalesce="false" />
    <inkscape:path-effect
       effect="simplify"
       id="path-effect889"
       is_visible="true"
       steps="1"
       threshold="0.000408163"
       smooth_angles="360"
       helper_size="0"
       simplify_individual_paths="false"
       simplify_just_coalesce="false"
       simplifyindividualpaths="false"
       simplifyJustCoalesce="false" />
    <inkscape:path-effect
       effect="simplify"
       id="path-effect877"
       is_visible="true"
       steps="1"
       threshold="0.000408163"
       smooth_angles="360"
       helper_size="0"
       simplify_individual_paths="false"
       simplify_just_coalesce="false"
       simplifyindividualpaths="false"
       simplifyJustCoalesce="false" />
    <inkscape:path-effect
       effect="simplify"
       id="path-effect873"
       is_visible="true"
       steps="1"
       threshold="0.000408163"
       smooth_angles="360"
       helper_size="0"
       simplify_individual_paths="false"
       simplify_just_coalesce="false"
       simplifyindividualpaths="false"
       simplifyJustCoalesce="false" />
    <inkscape:path-effect
       effect="simplify"
       id="path-effect849"
       is_visible="true"
       steps="1"
       threshold="0.000408163"
       smooth_angles="360"
       helper_size="0"
       simplify_individual_paths="false"
       simplify_just_coalesce="false"
       simplifyindividualpaths="false"
       simplifyJustCoalesce="false" />
    <inkscape:path-effect
       effect="simplify"
       id="path-effect845"
       is_visible="true"
       steps="1"
       threshold="0.000408163"
       smooth_angles="360"
       helper_size="0"
       simplify_individual_paths="false"
       simplify_just_coalesce="false"
       simplifyindividualpaths="false"
       simplifyJustCoalesce="false" />
    <inkscape:path-effect
       effect="simplify"
       id="path-effect821"
       is_visible="true"
       steps="1"
       threshold="0.000408163"
       smooth_angles="360"
       helper_size="0"
       simplify_individual_paths="false"
       simplify_just_coalesce="false"
       simplifyindividualpaths="false"
       simplifyJustCoalesce="false" />
    <inkscape:path-effect
       effect="simplify"
       id="path-effect817"
       is_visible="true"
       steps="1"
       threshold="0.000408163"
       smooth_angles="360"
       helper_size="0"
       simplify_individual_paths="false"
       simplify_just_coalesce="false"
       simplifyindividualpaths="false"
       simplifyJustCoalesce="false" />
    <inkscape:perspective
       sodipodi:type="inkscape:persp3d"
       inkscape:vp_x="196.41879 : 188.36582 : 1"
       inkscape:vp_y="-9.182518e-14 : -749.83429 : 0"
       inkscape:vp_z="38.953592 : 188.36582 : 1"
       inkscape:persp3d-origin="117.68619 : 225.48262 : 1"
       id="perspective867" />
  </defs>
  <sodipodi:namedview
     id="base"
     pagecolor="#ffffff"
     bordercolor="#666666"
     borderopacity="1.0"
     inkscape:pageopacity="0.0"
     inkscape:pageshadow="2"
     inkscape:zoom="2.8"
     inkscape:cx="437.12302"
     inkscape:cy="724.90773"
     inkscape:document-units="mm"
     inkscape:current-layer="layer1"
     showgrid="false"
     inkscape:window-width="1920"
     inkscape:window-height="1027"
     inkscape:window-x="1912"
     inkscape:window-y="-8"
     inkscape:window-maximized="1"
     showguides="true"
     inkscape:guide-bbox="true">
    <sodipodi:guide
       position="55.85933,231.85632"
       orientation="1,0"
       id="guide883"
       inkscape:locked="false" />
    <sodipodi:guide
       position="68.220545,203.3253"
       orientation="0,1"
       id="guide915"
       inkscape:locked="false" />
    <sodipodi:guide
       position="69.289623,192.63452"
       orientation="0,1"
       id="guide917"
       inkscape:locked="false" />
  </sodipodi:namedview>
  <metadata
     id="metadata5">
    <rdf:RDF>
      <cc:Work
         rdf:about="">
        <dc:format>image/svg+xml</dc:format>
        <dc:type
           rdf:resource="http://purl.org/dc/dcmitype/StillImage" />
        <dc:title />
      </cc:Work>
    </rdf:RDF>
  </metadata>
  <g
     inkscape:label="Laag 1"
     inkscape:groupmode="layer"
     id="layer1">
    <path
       style="fill:none;stroke:#000000;stroke-width:0.17528649px;stroke-linecap:butt;stroke-linejoin:miter;stroke-opacity:1"
       d="m 75.937953,95.445367 c -0.01424,0.07186 -0.03719,0.14299 -0.03556,0.217037 7.77e-4,0.03541 0.0022,0.0708 0.0022,0.106228 0,0.93905 -8.61e-4,1.878101 0,2.817151 7.4e-5,0.08075 -0.01225,0.162241 0.0012,0.242372 0.0085,0.05065 0.0335,0.09795 0.03415,0.150038 3.74e-4,0.02994 -0.002,0.05983 -0.002,0.08978 -4.4e-5,0.07591 0.0025,0.151874 -6.9e-5,0.227746 -0.0017,0.0507 -0.0049,0.101634 0.004,0.152079 0.0054,0.03079 0.0085,0.06254 0.01981,0.09187 0,0 0.0061,3.16e-4 0.0061,3.16e-4 0.0036,-0.01098 0.0045,-0.04553 0.0045,-0.0341 -7e-6,0.04177 -0.0085,0.08478 6.04e-4,0.12549 0.0015,0.0065 0.0038,0.01298 0.0031,0.01984 0,0 -0.0047,0.0037 -0.0047,0.0037 0,0 -0.0043,-0.0037 -0.0043,-0.0037 0.0018,-0.01413 0.0052,-0.02761 9.81e-4,-0.04248 -0.01238,-0.04409 -0.03104,-0.08607 -0.04784,-0.12866 -0.0075,-0.01911 -0.0238,-0.03039 -0.04192,-0.04109 -0.04031,-0.02379 -0.06713,-0.06395 -0.0948,-0.100515 -0.03732,-0.0493 -0.06366,-0.105605 -0.08829,-0.162014 -0.03321,-0.07606 -0.0645,-0.155382 -0.120309,-0.218195 -0.0735,-0.08273 -0.169194,-0.140624 -0.249603,-0.215946 -0.08066,-0.07556 -0.160757,-0.152119 -0.233409,-0.235433 -0.05845,-0.06703 -0.103688,-0.146055 -0.173213,-0.203064 -0.05812,-0.04765 -0.124427,-0.0835 -0.188613,-0.122017 -0.05394,-0.03236 -0.102011,-0.07761 -0.161822,-0.09709 -0.03826,-0.01247 -0.0791,-0.01899 -0.113541,-0.04161 -0.0441,-0.02896 -0.07802,-0.07262 -0.126154,-0.09508 -0.03667,-0.01711 -0.08383,-0.01274 -0.112683,-0.04498 -0.02401,-0.02683 -0.0454,-0.05829 -0.08055,-0.07155 -0.0166,-0.0063 -0.03421,-0.01989 -0.05251,-0.0124 -0.01692,0.0069 -0.02422,-0.01405 -0.02937,-0.02589 -0.0067,-0.01543 -0.0077,-0.04915 -0.02689,-0.04521 -0.01186,0.0024 -0.02659,0.0076 -0.03557,-0.0043 -0.01164,-0.01538 -0.02498,-0.02903 -0.04224,-0.03833 -0.01567,-0.0084 -0.04542,-0.04151 -0.04865,-0.02349 -7.39e-4,0.0041 0.0086,0.01291 -0.005,-0.0016 -0.03103,-0.03292 -0.06093,-0.06717 -0.09522,-0.09667 -0.01694,-0.01458 -0.03835,-0.02905 -0.03946,-0.05383 0,0 6.5e-4,-0.0092 6.5e-4,-0.0092 0.0087,-0.0094 0.02305,-8.71e-4 0.03161,0.0038 0.0141,0.0077 0.02623,0.01853 0.04061,0.02577"
       id="path843"
       inkscape:connector-curvature="0"
       inkscape:path-effect="#path-effect845"
       inkscape:original-d="m 75.937953,95.445367 c -0.01114,0.05568 -0.02714,0.110607 -0.03341,0.167045 -0.0049,0.04427 0,0.08909 0,0.133633 0,0.04454 0,0.08909 0,0.133636 0,0.211587 0,0.423177 0,0.634764 0,0.690446 0,1.380892 0,2.071338 0,0.07795 -0.0097,0.156509 0,0.233863 0.0057,0.04556 0.02692,0.08818 0.03341,0.133633 0.0047,0.03307 0,0.06682 0,0.100227 0,0.07795 0,0.155908 0,0.23386 0,0.04454 -0.0063,0.08954 0,0.133636 0.04397,0.307813 0.03341,-0.101857 0.03341,0.200451 0,0.01114 0.01114,0.03341 0,0.03341 -0.01114,0 0.0027,-0.02259 0,-0.03341 -0.0085,-0.03416 -0.02032,-0.06753 -0.03341,-0.100225 -0.05676,-0.141893 -0.02801,-0.0019 -0.167045,-0.200453 -0.07896,-0.112797 -0.105518,-0.26307 -0.200451,-0.367496 -0.06906,-0.07597 -0.158623,-0.130588 -0.23386,-0.200451 -0.08078,-0.07501 -0.159086,-0.152855 -0.233862,-0.23386 -0.05899,-0.06391 -0.102685,-0.141946 -0.167042,-0.200453 -0.05942,-0.05402 -0.132702,-0.09052 -0.200454,-0.133636 -0.05568,-0.03341 -0.11136,-0.06681 -0.167042,-0.100224 -0.03341,-0.01114 -0.06965,-0.01593 -0.100227,-0.03341 -0.04834,-0.02763 -0.08529,-0.0726 -0.133635,-0.100227 -0.03058,-0.01746 -0.07003,-0.01529 -0.100224,-0.03341 -0.02701,-0.01622 -0.04162,-0.04792 -0.06682,-0.06682 -0.01992,-0.01495 -0.04319,-0.02553 -0.06682,-0.03341 -0.01056,-0.0035 -0.02553,0.0079 -0.03341,0 -0.01762,-0.01762 -0.0158,-0.04921 -0.03341,-0.06682 -0.0079,-0.0079 -0.02344,0.005 -0.03341,0 -0.01408,-0.007 -0.02029,-0.02469 -0.03341,-0.03341 -0.142486,-0.09499 0.01087,0.04427 -0.133636,-0.100227 -0.01114,-0.01114 -0.02228,-0.02228 -0.03341,-0.03341 -0.01114,-0.01114 -0.02635,-0.01931 -0.03341,-0.03341 -0.005,-0.0099 -0.01114,-0.03341 0,-0.03341 0.0249,0 0.04454,0.02228 0.06682,0.03341"
       transform="matrix(1.5094337,0,0,1.5094337,-43.586378,-50.393753)" />
    <path
       style="fill:none;stroke:#000000;stroke-width:0.17528649px;stroke-linecap:butt;stroke-linejoin:miter;stroke-opacity:1"
       d="m 75.971362,99.68827 c 0.09037,-0.10455 0.173557,-0.215794 0.274518,-0.310823 0.03292,-0.03098 0.06944,-0.0577 0.105692,-0.08459 0.0428,-0.03174 0.0854,-0.06504 0.118075,-0.107723 0.03384,-0.04421 0.06034,-0.09498 0.103071,-0.131633 0.04158,-0.03567 0.104987,-0.03218 0.141858,-0.07573 0.03861,-0.04559 0.0504,-0.107306 0.08809,-0.153488 0.02917,-0.03575 0.07104,-0.05695 0.108346,-0.08277 0.03374,-0.02335 0.06277,-0.0527 0.09295,-0.08036 0.02936,-0.02691 0.04843,-0.06273 0.07983,-0.0879 0.03946,-0.03164 0.08163,-0.0597 0.123693,-0.08771 0.04881,-0.03249 0.11126,-0.04146 0.153795,-0.08402 0.03431,-0.03433 0.06038,-0.08202 0.109569,-0.09719 0.03178,-0.0098 0.06404,-0.01759 0.09594,-0.02723 0.05895,-0.01781 0.120386,-0.03006 0.175237,-0.05884 0.03158,-0.01657 0.04413,-0.05309 0.07467,-0.07185 0.04843,-0.02975 0.103466,-0.04645 0.151094,-0.07811 0.0271,-0.01801 0.04986,-0.05012 0.08274,-0.05261 0.0086,-6.54e-4 0.01949,0.0082 0.02558,0.0021 0.02227,-0.02224 0.03846,-0.05229 0.06682,-0.06682 0.0088,-0.0045 0.01737,0.0022 0.02617,0.0025 0,0 0.0072,-0.0025 0.0072,-0.0025 0,0 0.0018,-0.0086 0.0018,-0.0086 -0.0011,-0.0071 -0.0044,-0.01359 -0.0054,-0.02075 0,0 0.0036,-0.0041 0.0036,-0.0041 0,0 0.0047,0.0068 0.0047,0.0068 7.74e-4,0.0088 0.0041,0.02116 -0.0031,0.0261 -0.0026,0.0018 -0.0016,-0.002 -0.0016,-0.0034 0,-0.02097 0,-0.04193 0,-0.0629"
       id="path847"
       inkscape:connector-curvature="0"
       inkscape:path-effect="#path-effect849"
       inkscape:original-d="m 75.971362,99.68827 c 0.09621,-0.111225 0.187388,-0.236982 0.300678,-0.334086 0.05414,-0.04641 0.116623,-0.08321 0.167044,-0.133633 0.05042,-0.05042 0.07997,-0.12009 0.133634,-0.167045 0.03748,-0.03279 0.09842,-0.0316 0.133635,-0.06682 0.04592,-0.04592 0.05747,-0.118173 0.100227,-0.167042 0.03667,-0.0419 0.09136,-0.06399 0.133633,-0.100227 0.169045,-0.144896 0.03557,-0.07939 0.267269,-0.23386 0.04144,-0.02763 0.09311,-0.03787 0.133636,-0.06682 0.03845,-0.02746 0.06092,-0.07402 0.100227,-0.100226 0.0293,-0.01953 0.06682,-0.02228 0.100226,-0.03341 0.06682,-0.02228 0.137454,-0.03532 0.200451,-0.06682 0.02817,-0.01408 0.04061,-0.04935 0.06682,-0.06682 0.04144,-0.02763 0.09039,-0.04211 0.133633,-0.06682 0.03486,-0.01992 0.06431,-0.04886 0.100227,-0.06682 0.0099,-0.005 0.02228,0 0.03341,0 0.02228,-0.02228 0.04061,-0.04935 0.06682,-0.06682 0.0093,-0.0062 0.02553,0.0079 0.03341,0 0.0079,-0.0079 -0.01114,-0.03341 0,-0.03341 0.01114,0 0,0.04454 0,0.03341 0,-0.02228 0,-0.04454 0,-0.06682"
       transform="matrix(1.5094337,0,0,1.5094337,-43.586378,-50.393753)" />
    <path
       style="fill:none;stroke:#000000;stroke-width:0.17528649px;stroke-linecap:butt;stroke-linejoin:miter;stroke-opacity:1"
       d="m 76.004771,101.19166 c -0.05773,-0.0114 -0.114497,-0.0291 -0.173267,-0.0341 -0.03489,-0.003 -0.06982,6.6e-4 -0.104755,6.6e-4 -0.308231,0 -0.616812,0.0147 -0.924692,0 -0.02994,-0.001 -0.05978,-0.002 -0.08954,0.005 -0.02475,0.005 -0.0501,0.009 -0.07416,0.017 0,0 -0.0037,0.004 -0.0037,0.004 0.0032,0.0205 -0.01901,0.0319 -0.03301,0.0415 -0.04596,0.0317 -0.111752,0.0342 -0.147029,0.0784 -0.02354,0.0295 -0.0543,0.0515 -0.07986,0.0791 -0.0063,0.007 -0.01088,0.0158 -0.0074,0.0258 0.0064,0.0184 -0.0053,0.0366 -0.01693,0.0491 -0.0042,0.004 -0.0111,0.0212 -0.01397,0.0141 -0.0056,-0.0138 0.01387,-0.05 9.61e-4,-0.0436 -0.007,0.003 -0.0076,0.0132 -0.0099,0.0199 -0.0099,0.0299 -0.02569,0.0587 -0.02928,0.09 -0.004,0.0351 0.01566,0.0726 -0.0042,0.10539 -0.01341,0.0221 -0.02813,0.0443 -0.02974,0.0715 -0.0025,0.0413 0.0032,0.0826 0.0032,0.12391 0,0.0182 -3.33e-4,0.0364 0,0.0546 4.35e-4,0.0238 -0.01275,0.0519 0.0027,0.0719 0.01,0.0129 0.03102,0.0168 0.03225,0.0365 0.0013,0.0215 -0.01679,0.0491 0.0046,0.0653 0.02022,0.0153 0.05039,0.0115 0.06673,0.0337 0.01316,0.0179 0.0065,0.0532 0.02738,0.0598 0.03821,0.012 0.08068,0.0151 0.112524,0.0429 0.01405,0.0123 0.03541,0.023 0.03719,0.0425 0.0013,0.0138 -0.02674,0.008 -0.0256,0.0173 9.42e-4,0.008 0.01041,0.008 0.01614,0.0101 0.06007,0.0214 0.120736,0.0426 0.183944,0.0526 0.04655,0.007 0.09312,0.0146 0.139088,0.0253 0.06815,0.0158 0.133285,0.0417 0.199508,0.0637 0.05353,0.0178 0.107239,0.0368 0.163224,0.0449 0.08978,0.0131 0.180264,-0.002 0.27033,-0.002 0.03855,6e-5 0.07794,-1.3e-4 0.11502,0.0117 0.04579,0.0146 0.09264,0.0302 0.141606,0.0259 0.04367,-0.004 0.08762,-0.003 0.130783,0.007 0.04797,0.0102 0.09534,0.0263 0.144869,0.0267 0.0391,3.3e-4 0.08072,-0.014 0.117544,0.001 0.02399,0.01 0.04284,0.0301 0.07024,0.033 0.03194,0.003 0.06382,-0.002 0.09581,-0.002 0.298037,0 0.596078,0.002 0.89411,0 0.03974,-2.3e-4 0.08054,0.007 0.119417,-0.005 0.0375,-0.0115 0.07323,-0.0347 0.11453,-0.0283 0.03373,0.005 0.0666,-0.006 0.09809,-0.0167 0.01244,-0.004 0.0503,-0.009 0.03779,-0.0121 -0.01559,-0.003 -0.04009,0.004 -0.04723,-0.0125 -0.0045,-0.0102 0.0041,-0.0207 0.0115,-0.0259 0.01092,-0.008 0.02535,0.0108 0.03341,0 0.01557,-0.0208 -0.02021,-0.0505 0,-0.0668 0.0084,-0.007 0.02253,-0.0266 0.02982,-0.0148 0.0065,0.0105 0.0021,0.0233 0.0035,0.0349 0,0 0.0034,7e-4 0.0034,7e-4 0.0123,-0.0166 0.02208,-0.0351 0.03005,-0.0541 0.0052,-0.0125 -0.0062,-0.026 0.0032,-0.0383 0.0097,-0.0128 0.03569,-0.0183 0.03166,-0.0365 -0.0026,-0.0116 -0.0047,-0.0249 0.0058,-0.0345 0.01078,-0.01 0.02705,-0.0173 0.02766,-0.0351 0.0019,-0.0555 6.9e-4,-0.11115 -0.001,-0.16668 -0.0013,-0.041 0.02893,-0.0944 -4.28e-4,-0.12309 -0.01861,-0.0182 -0.05339,-0.01 -0.06682,-0.0334 -0.01226,-0.0214 0.01684,-0.0497 0,-0.0668 -0.0097,-0.01 -0.02271,0.006 -0.03341,0 -0.01941,-0.0116 -0.03158,-0.0313 -0.0471,-0.0475 -0.04437,-0.0461 -0.08482,-0.0967 -0.134387,-0.13722 -0.01007,-0.008 -0.01965,-0.0186 -0.03498,-0.018 -0.0085,3.3e-4 -0.01616,0.003 -0.02581,-0.002 -0.02809,-0.0136 -0.05601,-0.0273 -0.0785,-0.0515 -0.01935,-0.0208 -0.04926,-0.0266 -0.07576,-0.0325 -0.03143,-0.007 -0.05877,-0.0242 -0.08744,-0.0383 -0.01036,-0.005 -0.02162,-0.01 -0.03385,-0.007 -0.01948,0.004 -0.03828,-0.006 -0.05513,-0.0143 -0.01117,-0.005 -0.02124,-0.0124 -0.03006,-0.0229 -0.01136,-0.0134 -0.03078,-0.0156 -0.04698,-0.0187 -0.02808,-0.005 -0.05619,-0.0153 -0.08525,-0.01 -0.01821,0.003 -0.03768,-3.6e-4 -0.05128,-0.0155 -0.0074,-0.008 -0.01341,-0.017 -0.02354,-0.0234 -0.02525,-0.016 -0.05226,-0.0317 -0.08334,-0.0319 -0.03363,-2.3e-4 -0.06811,0.0126 -0.100737,0.005 -0.03486,-0.008 -0.06477,-0.0296 -0.09634,-0.0459 -0.04062,-0.0211 -0.08246,-0.0403 -0.127033,-0.0518 -0.04246,-0.011 -0.08682,-0.008 -0.130134,-0.006 -0.0381,0.001 -0.07794,0.0153 -0.114316,0.004 -0.05004,-0.0156 -0.09453,-0.0459 -0.141644,-0.0685 z"
       id="path871"
       inkscape:connector-curvature="0"
       inkscape:path-effect="#path-effect873"
       inkscape:original-d="m 76.004771,101.19166 c -0.05568,-0.0111 -0.110699,-0.0263 -0.167045,-0.0334 -0.03315,-0.004 -0.06682,0 -0.100224,0 -0.04454,0 -0.08909,0 -0.133636,0 -0.133635,0 -0.267269,0 -0.400904,0 -0.08909,0 -0.178179,0 -0.267269,0 -0.04454,0 -0.08909,0 -0.133636,0 -0.02228,0 -0.04498,-0.004 -0.06682,0 -0.175392,0.0351 -0.04839,0.01 -0.133633,0.0668 -0.04144,0.0276 -0.0922,0.0392 -0.133636,0.0668 -0.0131,0.009 -0.02228,0.0223 -0.03341,0.0334 -0.02228,0.0223 -0.04934,0.0406 -0.06682,0.0668 -0.0062,0.009 0.005,0.0234 0,0.0334 -0.07645,0.1529 0.01384,-0.14176 -0.06682,0.10023 -0.01056,0.0317 0.0081,0.0678 0,0.10023 -0.006,0.0242 -0.02737,0.0426 -0.03341,0.0668 -0.0087,0.0346 0,0.0953 0,0.13364 0,0.0223 0,0.0445 0,0.0668 0,0.0223 -0.007,0.0457 0,0.0668 0.005,0.0149 0.02843,0.0185 0.03341,0.0334 0.007,0.0211 -0.01236,0.0483 0,0.0668 0.01381,0.0207 0.04921,0.0158 0.06682,0.0334 0.01759,0.0176 0.02228,0.0445 0.03341,0.0668 0.03341,0.0111 0.07205,0.0123 0.100226,0.0334 0.142545,0.10691 -0.08686,0.0379 0.100227,0.10023 0.135004,0.045 0.155043,0.0271 0.300678,0.0668 0.08198,0.0224 0.237755,0.0882 0.334087,0.10022 0.110503,0.0138 0.223276,-0.0111 0.334086,0 0.04569,0.005 0.08807,0.0277 0.133636,0.0334 0.0442,0.006 0.08936,-0.005 0.133633,0 0.05644,0.006 0.110607,0.0271 0.167045,0.0334 0.04427,0.005 0.0897,-0.007 0.133633,0 0.02455,0.004 0.0424,0.0285 0.06682,0.0334 0.03276,0.007 0.06682,0 0.100227,0 0.04454,0 0.08909,0 0.133635,0 0.155906,0 0.311815,0 0.46772,0 0.100227,0 0.200454,0 0.300678,0 0.03341,0 0.06727,0.005 0.100227,0 0.03474,-0.006 0.06569,-0.0265 0.100227,-0.0334 0.02183,-0.004 0.04521,0.005 0.06682,0 0.22503,-0.0563 5.29e-4,-5.3e-4 0.06682,-0.0668 0.0079,-0.008 0.02553,0.008 0.03341,0 0.01574,-0.0157 -0.01574,-0.0511 0,-0.0668 0.06912,-0.0691 -0.0027,0.10563 0.06682,-0.0334 0.005,-0.01 -0.005,-0.0234 0,-0.0334 0.007,-0.0141 0.02635,-0.0193 0.03341,-0.0334 0.005,-0.01 -0.005,-0.0234 0,-0.0334 0.007,-0.0141 0.02635,-0.0193 0.03341,-0.0334 0.005,-0.01 0,-0.1864 0,-0.20045 0,-0.008 0.0011,-0.0992 0,-0.10023 -0.01762,-0.0176 -0.053,-0.0127 -0.06682,-0.0334 -0.01236,-0.0185 0.0099,-0.0469 0,-0.0668 -0.005,-0.01 -0.02344,0.005 -0.03341,0 -0.01408,-0.007 -0.02228,-0.0223 -0.03341,-0.0334 -0.02683,-0.0268 -0.138097,-0.14775 -0.167042,-0.16704 -0.0093,-0.006 -0.02228,0 -0.03341,0 -0.02228,-0.0111 -0.0461,-0.0196 -0.06682,-0.0334 -0.0131,-0.009 -0.01932,-0.0264 -0.03341,-0.0334 -0.0315,-0.0158 -0.06753,-0.0203 -0.100224,-0.0334 -0.02312,-0.009 -0.0432,-0.0255 -0.06682,-0.0334 -0.01056,-0.004 -0.02283,0.004 -0.03341,0 -0.133636,-0.0446 0.0067,-0.0321 -0.167045,-0.0668 -0.02183,-0.004 -0.04569,0.007 -0.06681,0 -0.01495,-0.005 -0.02228,-0.0223 -0.03341,-0.0334 -0.02228,-0.0111 -0.0424,-0.0285 -0.06682,-0.0334 -0.03276,-0.007 -0.06682,0 -0.100227,0 -0.01114,0 -0.02283,0.004 -0.03341,0 -0.02363,-0.008 -0.04455,-0.0223 -0.06682,-0.0334 -0.05939,-0.0297 -0.09824,-0.0531 -0.167042,-0.0668 -0.03664,-0.007 -0.154163,0 -0.200454,0 -0.01114,0 -0.02307,0.004 -0.03341,0 -0.04624,-0.0185 -0.08909,-0.0446 -0.133633,-0.0668 z"
       transform="matrix(1.5094337,0,0,1.5094337,-43.586378,-50.393753)" />
    <path
       style="fill:none;stroke:#000000;stroke-width:0.17528649px;stroke-linecap:butt;stroke-linejoin:miter;stroke-opacity:1"
       d="m 74.434561,101.99347 c 0.06096,-0.0514 0.126646,-0.0984 0.200202,-0.13015 0.06347,-0.0274 0.130724,-0.0441 0.196238,-0.0657 0.05881,-0.0193 0.116752,-0.0415 0.173082,-0.0672 0.02631,-0.012 0.04999,-0.0286 0.07425,-0.0445 0.02797,-0.0184 0.06126,-0.026 0.09317,-0.0344 0.04089,-0.0108 0.08152,-0.023 0.123077,-0.0309 0.06189,-0.0118 0.126027,-0.012 0.186424,-0.0312 0.05773,-0.0183 0.109137,-0.0531 0.168584,-0.0667 0.06205,-0.0142 0.127615,-0.009 0.188136,-0.0303 0.04234,-0.0147 0.07008,-0.0525 0.110326,-0.0717 0.0508,-0.0243 0.103586,-0.0441 0.156946,-0.0619 0.03342,-0.0111 0.06508,-0.0357 0.100224,-0.0334 0.01408,9.1e-4 0.02823,0.003 0.0421,-0.003 0.01997,-0.009 0.03729,-0.023 0.05813,-0.03 0,0 0.0086,-5.6e-4 0.0086,-5.6e-4 0.0081,6.1e-4 0.0173,0.007 0.02484,5.6e-4 0,0 0.0018,-0.009 0.0018,-0.009 -0.0011,-0.007 -0.0044,-0.0136 -0.0054,-0.0207 0,0 0.0036,-0.004 0.0036,-0.004 0,0 0.0062,0.006 0.0062,0.006 0.0027,0.008 0.0029,0.0161 -5.9e-5,0.0236 0,0 -0.0062,0.004 -0.0062,0.004 -0.114293,-0.0229 -0.222771,-0.0668 -0.334087,-0.10023"
       id="path875"
       inkscape:connector-curvature="0"
       inkscape:path-effect="#path-effect877"
       inkscape:original-d="m 74.434561,101.99347 c 0.199724,-0.16835 0.274818,-0.14333 0.501132,-0.23386 0.230412,-0.0922 0.03861,-0.0598 0.334087,-0.13363 0.06572,-0.0164 0.135099,-0.0156 0.200451,-0.0334 0.05786,-0.0158 0.109188,-0.051 0.167044,-0.0668 0.06535,-0.0178 0.136189,-0.012 0.200451,-0.0334 0.03809,-0.0127 0.06431,-0.0489 0.100227,-0.0668 0.05364,-0.0268 0.110892,-0.0458 0.167045,-0.0668 0.03341,-0.0111 0.06682,-0.0223 0.100224,-0.0334 0.01114,0 0.02283,0.004 0.03341,0 0.02363,-0.008 0.04319,-0.0255 0.06682,-0.0334 0.01056,-0.004 0.02553,0.008 0.03341,0 0.0079,-0.008 -0.01114,-0.0334 0,-0.0334 0.01114,0 0.01093,0.0356 0,0.0334 -0.114009,-0.0228 -0.222727,-0.0668 -0.334087,-0.10023"
       transform="matrix(1.5094337,0,0,1.5094337,-43.586378,-50.393753)" />
    <path
       style="fill:none;stroke:#000000;stroke-width:0.17528649px;stroke-linecap:butt;stroke-linejoin:miter;stroke-opacity:1"
       d="m 75.26978,102.39438 c 0.07218,-0.0292 0.143464,-0.061 0.217479,-0.0853 0.02418,-0.008 0.04873,-0.0178 0.07489,-0.0156 0.02949,0.002 0.06087,0.009 0.08889,-0.005 0.03718,-0.0194 0.06421,-0.0543 0.104603,-0.0688 0.03859,-0.0138 0.07822,-0.0234 0.115302,-0.0427 0.01328,-0.007 0.0265,-0.0197 0.04179,-0.0174 0.01127,0.002 0.02258,0.003 0.03389,-0.002 0.02438,-0.0111 0.04591,-0.0322 0.07475,-0.031 0.01825,7.2e-4 0.03927,0.01 0.05538,-0.001 0.01349,-0.009 0.01729,-0.0325 0.03609,-0.0329 0.0114,-2.7e-4 0.02257,0.002 0.03398,0.002 0.02433,0.002 0.05281,0.009 0.07344,-0.009 0.02243,-0.0188 0.03378,-0.0475 0.05968,-0.0634 0.0416,-0.0255 0.09499,-0.0315 0.130379,-0.0655 0.01141,-0.011 0.01917,-0.0258 0.03479,-0.0324 0.03054,-0.0129 0.06595,-0.0121 0.09423,-0.0307 0,0 0.0025,-0.007 0.0025,-0.007 -3.01e-4,-0.009 -0.01248,-0.0216 -0.0025,-0.0264 0.03198,-0.0152 0.06732,-0.003 0.100126,0.002 0.02378,0.003 0.04773,-0.004 0.06763,-0.0165 0.02375,-0.0152 0.05014,-0.0254 0.07515,-0.0383 0.01348,-0.007 0.02777,-0.0139 0.03676,-0.0269 0.0069,-0.01 0.01552,-0.021 0.02932,-0.0216 0.0176,-6.9e-4 0.03441,0.0107 0.05199,0.006 0,0 0.0065,-0.004 0.0065,-0.004 0,0 0.0039,-0.007 0.0039,-0.007 0.0035,-0.0185 -0.01128,-0.0349 -0.0077,-0.0533 0,0 0.0039,-0.007 0.0039,-0.007 0,0 0.0066,-0.004 0.0066,-0.004 0.02035,-0.005 0.04013,0.0127 0.06025,0.004 0,0 0.0031,-0.006 0.0031,-0.006 -7.02e-4,-0.007 -0.0041,-0.0127 -0.005,-0.0193 0,0 0.0019,-0.008 0.0019,-0.008 0.0046,-0.005 0.01162,-0.008 0.01841,-0.007 0.01404,0.003 0.02274,0.0155 0.03596,0.0198 0,0 0.0066,-0.003 0.0066,-0.003 0.0066,-0.0133 0.0052,-0.0292 0.0058,-0.0436"
       id="path887"
       inkscape:connector-curvature="0"
       inkscape:path-effect="#path-effect889"
       inkscape:original-d="m 75.26978,102.39438 c 0.0086,-0.003 0.222377,-0.0927 0.267268,-0.10023 0.03295,-0.005 0.06853,0.0106 0.100227,0 0.03809,-0.0127 0.06431,-0.0489 0.100227,-0.0668 0.0315,-0.0157 0.06753,-0.0203 0.100224,-0.0334 0.02312,-0.009 0.0432,-0.0255 0.06682,-0.0334 0.01056,-0.004 0.02283,0.004 0.03341,0 0.02363,-0.008 0.04266,-0.0274 0.06682,-0.0334 0.02162,-0.005 0.04569,0.007 0.06682,0 0.01495,-0.005 0.01931,-0.0263 0.03341,-0.0334 0.0099,-0.005 0.02228,0 0.03341,0 0.02228,0 0.04569,0.007 0.06682,0 0.02988,-0.01 0.04061,-0.0494 0.06682,-0.0668 0.04144,-0.0276 0.0922,-0.0392 0.133636,-0.0668 0.0131,-0.009 0.01931,-0.0263 0.03341,-0.0334 0.0315,-0.0157 0.07093,-0.0139 0.100225,-0.0334 0.0093,-0.006 -0.0099,-0.0284 0,-0.0334 0.03984,-0.0199 0.09042,0.0108 0.133635,0 0.02416,-0.006 0.04455,-0.0223 0.06682,-0.0334 0.02228,-0.0111 0.0461,-0.0196 0.06682,-0.0334 0.0131,-0.009 0.01847,-0.0284 0.03341,-0.0334 0.02114,-0.007 0.05107,0.0157 0.06681,0 0.01574,-0.0157 -0.01574,-0.0511 0,-0.0668 0.01574,-0.0157 0.0469,0.01 0.06682,0 0.01,-0.005 -0.0079,-0.0255 0,-0.0334 0.03296,-0.0329 0.06682,0.0685 0.06682,-0.0334"
       transform="matrix(1.5094337,0,0,1.5094337,-43.586378,-50.393753)" />
    <path
       style="fill:none;stroke:#000000;stroke-width:0.17528649px;stroke-linecap:butt;stroke-linejoin:miter;stroke-opacity:1"
       d="m 76.773171,102.52801 c 0.03624,-3.6e-4 0.06717,-0.0231 0.09152,-0.0481 0.03583,-0.0367 0.06105,-0.0838 0.102741,-0.11456 0.02986,-0.022 0.0654,-0.0334 0.09757,-0.0516 0.01575,-0.009 0.03196,-0.0202 0.05057,-0.0205 0.01721,-2.7e-4 0.03397,0.008 0.0512,0.004 0,0 0.0073,-0.003 0.0073,-0.003 0,0 0.0065,-0.006 0.0065,-0.006 0.01143,-0.0162 0.0089,-0.038 0.02034,-0.0543 0,0 0.0065,-0.006 0.0065,-0.006 0,0 0.0073,-0.003 0.0073,-0.003 0.02001,-0.004 0.03998,0.0105 0.0595,0.003 0.01581,-0.006 0.01883,-0.0258 0.03341,-0.0334 0,0 0.0083,-9.8e-4 0.0083,-9.8e-4 0,0 0.0092,0.002 0.0092,0.002 0,0 0.0088,0.002 0.0088,0.002 0,0 0.0072,-0.003 0.0072,-0.003 0,0 0.0022,-0.007 0.0022,-0.007 -4.67e-4,-0.009 -0.0079,-0.0173 -0.0022,-0.0259 0,0 0.0074,-0.002 0.0074,-0.002 0.0088,4.8e-4 0.01734,0.008 0.02596,0.002 0,0 0.0022,-0.007 0.0022,-0.007 -4.67e-4,-0.009 -0.0079,-0.0173 -0.0022,-0.0259 0,0 0.0074,-0.002 0.0074,-0.002 0.0088,4.8e-4 0.01734,0.008 0.02596,0.002 0,0 0.0022,-0.007 0.0022,-0.007 -4.67e-4,-0.009 -0.0079,-0.0173 -0.0022,-0.0259 0,0 0.0074,-0.002 0.0074,-0.002 0.0088,4.8e-4 0.01734,0.008 0.02596,0.002 0,0 0.0022,-0.007 0.0022,-0.007 -4.67e-4,-0.009 -0.0079,-0.0173 -0.0022,-0.0259 0,0 0.0074,-0.002 0.0074,-0.002 0.0088,4.8e-4 0.01734,0.008 0.02596,0.002 0,0 0.0022,-0.007 0.0022,-0.007 -4.67e-4,-0.009 -0.0079,-0.0173 -0.0022,-0.0259 0,0 0.0074,-0.002 0.0074,-0.002 0.0088,4.8e-4 0.01734,0.008 0.02596,0.002 0,0 0.0022,-0.007 0.0022,-0.007 -4.67e-4,-0.009 -0.0079,-0.0173 -0.0022,-0.0259 0,0 0.0066,-0.004 0.0066,-0.004 0,0 0.0077,-0.001 0.0077,-0.001 0.01521,4.2e-4 0.02922,0.009 0.04459,0.007 0,0 0.0079,-0.002 0.0079,-0.002 0.01146,-0.006 0.02316,-0.012 0.03249,-0.0211 0,0 0.0034,-0.005 0.0034,-0.005 0,0 5.61e-4,-0.004 5.61e-4,-0.004 -0.0037,-0.006 -0.0104,-0.008 -0.01598,-0.0112 -0.180557,-0.10633 -0.374122,-0.18773 -0.560899,-0.28204"
       id="path891"
       inkscape:connector-curvature="0"
       inkscape:path-effect="#path-effect893"
       inkscape:original-d="m 76.773171,102.52801 c 0.09021,-0.002 0.133771,-0.12259 0.200451,-0.16704 0.02072,-0.0138 0.04454,-0.0223 0.06682,-0.0334 0.02228,-0.0111 0.04266,-0.0274 0.06682,-0.0334 0.02162,-0.005 0.04828,0.0124 0.06682,0 0.02072,-0.0138 0.0127,-0.053 0.03341,-0.0668 0.01852,-0.0123 0.04569,0.007 0.06682,0 0.01495,-0.005 0.01932,-0.0263 0.03341,-0.0334 0.0099,-0.005 0.02553,0.008 0.03341,0 0.0079,-0.008 -0.0079,-0.0255 0,-0.0334 0.0079,-0.008 0.02553,0.008 0.03341,0 0.0079,-0.008 -0.0079,-0.0255 0,-0.0334 0.0079,-0.008 0.02553,0.008 0.03341,0 0.0079,-0.008 -0.0079,-0.0255 0,-0.0334 0.0079,-0.008 0.02553,0.008 0.03341,0 0.0079,-0.008 -0.0079,-0.0255 0,-0.0334 0.0079,-0.008 0.02553,0.008 0.03341,0 0.0079,-0.008 -0.0079,-0.0255 0,-0.0334 0.0079,-0.008 0.02553,0.008 0.03341,0 0.0079,-0.008 -0.0079,-0.0255 0,-0.0334 0.01574,-0.0157 0.04689,0.01 0.06682,0 0.01408,-0.007 0.04693,-0.0253 0.03341,-0.0334 -0.183915,-0.10996 -0.382569,-0.19315 -0.573855,-0.28973"
       transform="matrix(1.5094337,0,0,1.5094337,-43.586378,-50.393753)" />
    <path
       style="fill:none;stroke:#000000;stroke-width:0.18366466px;stroke-linecap:butt;stroke-linejoin:miter;stroke-opacity:1"
       d="m 57.162268,96.14695 c -0.03212,0.14697 -0.0779,0.291882 -0.145714,0.426184 -0.03512,0.06955 -0.07632,0.136401 -0.100864,0.210953 -0.02142,0.06507 -0.02974,0.134112 -0.0541,0.198081 -0.04319,0.113443 -0.0822,0.228586 -0.130422,0.340049 -0.03938,0.09103 -0.08623,0.180282 -0.107508,0.277614 -0.01964,0.08981 -0.0077,0.183801 -0.03571,0.272508 -0.03992,0.126603 -0.111475,0.241044 -0.14418,0.370327 -0.02164,0.08556 -0.03721,0.172623 -0.06448,0.256804 -0.03839,0.118522 -0.08274,0.235122 -0.114588,0.35577 -0.0188,0.07121 -0.03827,0.142629 -0.06905,0.209805 -0.02279,0.04974 -0.04045,0.101541 -0.0562,0.153918 -0.04227,0.140626 -0.06776,0.28651 -0.120699,0.423645 -0.02398,0.0621 -0.05568,0.12147 -0.06878,0.187603 -0.02088,0.105411 -0.04635,0.210429 -0.05627,0.317429 -0.0082,0.0883 -9.61e-4,0.17699 -9.72e-4,0.26551 -4.1e-5,0.31936 0.005,0.63876 -6.2e-5,0.95809 -0.0012,0.077 -0.0053,0.15435 0.0045,0.23112 0.01572,0.12273 0.04344,0.2454 0.09577,0.3577 0.02104,0.0452 0.05802,0.0799 0.08009,0.12487 0.025,0.0509 0.04876,0.10238 0.07807,0.15107 0.03632,0.0603 0.07605,0.11897 0.10399,0.18401 0.0198,0.0461 0.04181,0.0943 0.0808,0.12662 0.03211,0.0267 0.07501,0.0257 0.112128,0.0468 0.03291,0.0187 0.05632,0.0477 0.07806,0.0782 0.04608,0.0646 0.09524,0.12772 0.155738,0.17973 0.04004,0.0344 0.08321,0.066 0.132809,0.0858 0.0493,0.0197 0.09723,0.0443 0.139356,0.0767 0.04228,0.0325 0.07851,0.0784 0.132004,0.0913 0.05047,0.0122 0.105215,0.0137 0.14879,0.0465 0.0382,0.0288 0.07658,0.0574 0.117482,0.0822 0.04102,0.0249 0.0753,0.0597 0.11725,0.0827 0.03676,0.0202 0.07671,0.0343 0.116893,0.0457 0.02318,0.007 0.05219,0.0328 0.07081,0.0168 0.0087,-0.008 0.0033,-0.024 0.02015,-0.0247 0.04725,-0.002 0.09177,0.0145 0.135758,0.0356 0.03706,0.0178 0.07899,0.007 0.118261,0.007 0.06936,1e-4 0.139358,-0.009 0.208093,1.6e-4 0.04581,0.006 0.09102,-0.005 0.135078,-0.0162 0.123813,-0.0312 0.24334,-0.0781 0.358161,-0.13335 0.102065,-0.0491 0.200259,-0.10642 0.306762,-0.14657 0.03329,-0.0126 0.07704,-0.0129 0.09855,-0.0414 0.01294,-0.0171 0.02768,-0.0302 0.04905,-0.0384 0.04684,-0.0178 0.0919,-0.044 0.141661,-0.0506 0.01598,-0.002 -0.0048,0.0113 -0.0086,0.0136 -0.02035,0.0124 -0.08381,0.0452 -0.06266,0.0343 0.06132,-0.0317 0.118468,-0.0746 0.184929,-0.0933 0.03596,-0.0101 0.06864,-0.0315 0.08281,-0.0682 0.01252,-0.0324 0.03691,-0.0783 0.07903,-0.0645 0.02865,0.009 0.05993,0.0107 0.08462,-0.0131 0.04455,-0.043 0.04393,-0.11191 0.08477,-0.15765 0.03749,-0.042 0.09031,-0.0717 0.112709,-0.12604 0.02032,-0.0493 0.03554,-0.11156 0.09092,-0.13187 0.04629,-0.017 0.07688,-0.0558 0.09964,-0.0986 0.02685,-0.0505 0.0715,-0.0876 0.113891,-0.12437 0.03311,-0.0287 0.0502,-0.0679 0.07355,-0.10567 0.04074,-0.0658 0.0979,-0.12023 0.132287,-0.19049 0.0263,-0.0537 0.03565,-0.11995 0.08013,-0.16092 0.03025,-0.0279 0.06213,-0.0537 0.07772,-0.0948 0.02204,-0.0582 0.02785,-0.11917 0.04129,-0.1804 0.0094,-0.0427 0.0688,-0.0476 0.07617,-0.0888 0.0072,-0.0401 -0.01149,-0.0798 0.0074,-0.12065 0.02487,-0.0538 0.05624,-0.10421 0.08254,-0.15747 0.02626,-0.0532 0.05203,-0.10663 0.08291,-0.15729 0.02241,-0.0368 0.03093,-0.0789 0.02453,-0.12257 -0.0053,-0.0359 0.0094,-0.0705 0.02182,-0.1032 0.03327,-0.0877 0.08358,-0.16737 0.121044,-0.2532 0.02415,-0.0553 0.04961,-0.1101 0.07199,-0.16616 0,0 9.51e-4,-0.004 9.51e-4,-0.004 -0.0074,0.006 -0.02065,0.0323 -0.01789,0.0225 0.01159,-0.0409 0.02709,-0.0809 0.04495,-0.11947 0.02864,-0.0619 0.07421,-0.11625 0.09236,-0.182428 0.01069,-0.03898 -0.01175,-0.08017 0.0062,-0.118446 0.02505,-0.05335 0.06856,-0.09599 0.094,-0.148826 0.01919,-0.03986 0.02786,-0.08347 0.04176,-0.125281 0.01968,-0.05914 -0.0023,-0.186691 0.05927,-0.177341 9.49e-4,1.44e-4 -0.0064,0.01482 -0.0039,0.0043 0.01208,-0.05214 0.02464,-0.104403 0.0424,-0.15488 0.01521,-0.04322 0.03097,-0.08637 0.04035,-0.13135 0.01531,-0.07343 0.03927,-0.144562 0.06378,-0.215347 0.01515,-0.04376 0.02744,-0.08871 0.04688,-0.130754 0.01768,-0.03822 0.01331,-0.08019 0.0076,-0.119931 -0.0049,-0.03402 0.02882,-0.0439 0.04614,-0.06766 0.02155,-0.02955 0.02188,-0.065 0.02102,-0.101541 -5.72e-4,-0.02428 0.0159,-0.05529 0.04661,-0.04797 0.04464,0.01064 0.07062,-0.04752 0.05894,-0.0842 -0.01671,-0.05247 0.01791,-0.09933 0.04319,-0.142731 0.01193,-0.02048 0.008,-0.04387 0.01838,-0.06786 0.01522,-0.03515 0.04466,-0.0655 0.07815,-0.08228 0.02214,-0.01109 0.03037,-0.03561 0.0231,-0.05946 -0.0038,-0.01237 -0.004,-0.04713 0.01671,-0.0337 0.01565,0.01016 0.02432,-0.007 0.02055,-0.02316 -0.0031,-0.01339 -0.01733,-0.04832 0.0047,-0.04514 0.0086,0.0012 0.03058,0.01134 0.02819,-0.0052 -0.0012,-0.0086 -0.01127,-0.03103 0.0052,-0.02819 0.0094,0.0016 0.0272,0.01101 0.02957,-0.0052 0.0029,-0.01994 -0.02763,-0.04903 -0.0094,-0.0572 0.01571,-0.007 0.01964,0.02553 0.01065,0.02928 -0.01094,0.0046 -0.01915,-0.01181 -0.02553,-0.01941 -0.01898,-0.02261 -0.04393,-0.04434 -0.04986,-0.07441 0,0 0.0027,-0.0046 0.0027,-0.0046 -0.01279,0.01137 -0.03994,0.0059 -0.05823,0.0049 -0.05429,-0.0027 -0.105335,-0.02245 -0.157848,-0.03447 -0.08871,-0.02031 -0.181209,-0.02195 -0.267797,-0.05242 -0.06568,-0.02311 -0.130285,-0.05087 -0.199677,-0.06158 -0.06271,-0.0097 -0.12602,-0.01601 -0.187553,-0.03258 -0.0938,-0.02525 -0.185809,-0.05669 -0.281039,-0.07698 -0.06752,-0.01438 -0.137532,-0.02424 -0.199915,-0.05476 -0.06078,-0.02973 -0.10829,-0.0842 -0.17558,-0.101061 -0.05549,-0.0139 -0.11539,-0.0097 -0.1677,-0.0358 -0.05133,-0.02566 -0.09915,-0.06189 -0.157801,-0.06919 -0.05098,-0.0063 -0.101487,-0.02219 -0.140057,-0.05782 -0.03306,-0.03054 -0.07676,-0.04243 -0.119097,-0.05407 -0.06099,-0.01678 -0.107137,-0.07219 -0.170703,-0.07805 -0.03807,-0.0035 -0.07524,0.0085 -0.113718,-0.01031 -0.03812,-0.01866 -0.07438,-0.04165 -0.114115,-0.05652 -0.04249,-0.0159 -0.08818,-0.0239 -0.127483,-0.04771 -0.04708,-0.02852 -0.10284,-0.03532 -0.152589,-0.05771 -0.01684,-0.0076 -0.06487,-0.01093 -0.05061,-0.02284 0.02285,-0.01907 -0.008,-0.04624 -0.02165,-0.06055 -0.02533,-0.0266 -0.06658,-0.02539 -0.10218,-0.03983 -0.03131,-0.0127 -0.01458,-0.07976 -0.05612,-0.07314 -0.02067,0.0033 -0.05311,0.01788 -0.06222,-0.01085 -0.0074,-0.02335 -0.01217,-0.0667 -0.04607,-0.05608 -0.02275,0.0071 -0.04665,0.0055 -0.065,-0.01568 -0.02455,-0.02828 -0.04742,-0.05955 -0.07834,-0.08096 -0.02309,-0.01598 -0.06589,-0.07488 -0.07025,-0.04697 -0.0026,0.01639 0.03154,0.05285 0.0067,0.05092 -0.0396,-0.0031 -0.08379,-0.01425 -0.110614,-0.04271 -0.01785,-0.01894 -0.0082,-0.0726 -0.04058,-0.06671 -0.02343,0.0043 -0.05523,0.01706 -0.06924,-0.01143 -0.0079,-0.0161 -0.02447,-0.0126 -0.04209,-0.01532 -0.04116,-0.0064 -0.04793,-0.08225 -0.09156,-0.06823 -0.03236,0.0104 -0.03419,-0.03422 -0.06793,-0.03556 -0.03755,-0.0015 -0.115022,0.03569 -0.114227,9.38e-4 4.57e-4,-0.01997 -0.02387,-0.03221 -0.04012,-0.03383 -0.04319,-0.0043 -0.08694,-0.0021 -0.129636,0.0047 -0.02144,0.0034 -0.04143,-0.005 -0.05263,-0.02467 -0.01201,-0.02105 -0.03581,-0.01183 -0.0552,-0.01183 -0.08618,0 -0.172369,-0.0015 -0.258534,0 -0.04396,7.53e-4 -0.09189,0.01301 -0.131287,-0.0112 -0.01148,-0.0071 -0.01694,-0.02653 -0.03394,-0.0255 -0.04503,0.0027 -0.09037,0.0033 -0.13544,0.0033 z"
       id="path895"
       inkscape:connector-curvature="0"
       inkscape:path-effect="#path-effect897"
       inkscape:original-d="m 57.162268,96.14695 c -0.02998,0.138046 -0.07514,0.272227 -0.133633,0.400904 -0.03091,0.06801 -0.07341,0.130728 -0.100227,0.200454 -0.0291,0.07567 -0.04454,0.155905 -0.06682,0.23386 -0.03341,0.08909 -0.06574,0.178591 -0.100224,0.267269 -0.04347,0.111786 -0.101534,0.218522 -0.133636,0.334086 -0.02402,0.08651 -0.0094,0.180764 -0.03341,0.267269 -0.0321,0.115567 -0.09571,0.220303 -0.133635,0.334087 -0.02904,0.08712 -0.04091,0.17917 -0.06682,0.267271 -0.02981,0.101354 -0.06871,0.19984 -0.100226,0.300678 -0.02418,0.07738 -0.04118,0.156948 -0.06682,0.23386 -0.01897,0.05689 -0.04785,0.110151 -0.06682,0.167045 -0.05127,0.153823 -0.08236,0.313896 -0.133633,0.46772 -0.01897,0.05689 -0.04959,0.109603 -0.06682,0.167044 -0.0127,0.04232 -0.06463,0.339053 -0.06682,0.367493 -0.006,0.0777 0,0.15591 0,0.23386 0,0.23387 0,0.46773 0,0.70159 0,0.0891 0,0.17818 0,0.26727 0,0.0668 -0.0056,0.13386 0,0.20045 0.01077,0.1293 0.04756,0.2824 0.100227,0.4009 0.0163,0.0367 0.04689,0.0654 0.06682,0.10023 0.02471,0.0432 0.04263,0.0901 0.06681,0.13363 0.03154,0.0568 0.06869,0.11028 0.100227,0.16705 0.02418,0.0435 0.03919,0.0922 0.06682,0.13363 0.07952,0.11929 0.07423,0.0254 0.200451,0.13364 0.07374,0.0983 0.107386,0.1563 0.200453,0.23386 0.11035,0.0919 0.103153,0.0519 0.23386,0.13363 0.04722,0.0295 0.08383,0.0753 0.133636,0.10023 0.04107,0.0205 0.09143,0.0153 0.133633,0.0334 0.03691,0.0158 0.06682,0.0445 0.100227,0.0668 0.03341,0.0223 0.06682,0.0446 0.100227,0.0668 0.03341,0.0223 0.06263,0.0527 0.100224,0.0668 0.30499,0.11437 0.04837,-0.0104 0.267271,0.0334 0.02442,0.005 0.0424,0.0285 0.06682,0.0334 0.03276,0.007 0.06681,0 0.100224,0 0.03341,0 0.06682,0 0.100227,0 0.03341,0 0.06682,0 0.100227,0 0.02228,0 0.04485,0.004 0.06682,0 0.135353,-0.0226 0.276807,-0.0785 0.400902,-0.13364 0.09102,-0.0405 0.176249,-0.0932 0.267271,-0.13363 0.0548,-0.0244 0.113403,-0.04 0.167042,-0.0668 0.01408,-0.007 0.01879,-0.0276 0.03341,-0.0334 0.454877,-0.18195 -0.203462,0.13514 0.267269,-0.10023 0.02228,-0.0111 0.04921,-0.0158 0.06682,-0.0334 0.02839,-0.0284 0.03239,-0.0796 0.06682,-0.10022 0.02865,-0.0172 0.07158,0.0172 0.100227,0 0.06455,-0.0387 0.05883,-0.1153 0.100224,-0.16704 0.02952,-0.0369 0.07276,-0.0618 0.100227,-0.10023 0.02895,-0.0405 0.03494,-0.0954 0.06682,-0.13363 0.02569,-0.0309 0.07184,-0.0384 0.100227,-0.0668 0.02839,-0.0284 0.04068,-0.0697 0.06682,-0.10023 0.041,-0.0478 0.09331,-0.0852 0.133633,-0.13363 0.01593,-0.0191 0.01961,-0.0461 0.03341,-0.0668 0.03089,-0.0463 0.06934,-0.0873 0.100227,-0.13364 0.04144,-0.0622 0.05879,-0.13829 0.100224,-0.20045 0.01746,-0.0262 0.05061,-0.0398 0.06682,-0.0668 0.04926,-0.0821 0.02313,-0.1465 0.06682,-0.23386 0.01408,-0.0282 0.05512,-0.0376 0.06682,-0.0668 0.01241,-0.031 -0.0092,-0.0681 0,-0.10023 0.01368,-0.0479 0.04454,-0.0891 0.06682,-0.13363 0.02228,-0.0446 0.04454,-0.0891 0.06682,-0.13364 0.02228,-0.0445 0.05313,-0.0858 0.06681,-0.13363 0.0092,-0.0321 -0.0081,-0.0678 0,-0.10023 0.0283,-0.11318 0.08735,-0.19654 0.133636,-0.30068 0.178376,-0.40134 -0.01,0.008 0.100226,-0.26727 0.02506,-0.0626 0.08352,-0.14198 0.100224,-0.200448 0.0092,-0.03213 -0.0066,-0.06747 0,-0.100227 0.0083,-0.04167 0.08898,-0.144555 0.100227,-0.167045 0.01574,-0.0315 0.02228,-0.06682 0.03341,-0.100224 0.01114,-0.03341 0.02228,-0.06682 0.03341,-0.100227 0.0801,-0.240307 -0.01709,0.05979 0.06682,-0.23386 0.0097,-0.03386 0.02373,-0.06636 0.03341,-0.100226 0.01262,-0.04415 0.0208,-0.08949 0.03341,-0.133636 0.01934,-0.06772 0.04454,-0.133633 0.06681,-0.200451 0.01114,-0.03341 0.02762,-0.06549 0.03341,-0.100227 0.0055,-0.03295 -0.0081,-0.06781 0,-0.100227 0.0038,-0.01527 0.02466,-0.02029 0.03341,-0.03341 0.01381,-0.02072 0.02737,-0.04266 0.03341,-0.06682 0.0054,-0.02162 -0.007,-0.04569 0,-0.06682 0.02574,-0.07721 0.0593,0.01506 0.100227,-0.06682 0.01495,-0.02988 -0.0066,-0.06747 0,-0.100226 0.0098,-0.04883 0.05107,-0.08639 0.06682,-0.133633 0.0035,-0.01056 -0.0062,-0.02416 0,-0.03341 0.01746,-0.02622 0.04454,-0.04455 0.06681,-0.06682 0.01114,-0.01114 0.02843,-0.01847 0.03341,-0.03341 0.007,-0.02114 -0.0099,-0.0469 0,-0.06682 0.005,-0.0099 0.02553,0.0079 0.03341,0 0.01574,-0.01574 -0.01574,-0.05107 0,-0.06682 0.0079,-0.0079 0.02553,0.0079 0.03341,0 0.0079,-0.0079 -0.0079,-0.02553 0,-0.03341 0.0079,-0.0079 0.02553,0.0079 0.03341,0 0.01574,-0.01574 -0.02228,-0.06682 0,-0.06682 0.01114,0 0.0079,0.04128 0,0.03341 -0.163256,-0.163256 0.03816,-0.07091 -0.167042,-0.100227 -0.04546,-0.0065 -0.08861,-0.02439 -0.133636,-0.03341 -0.06642,-0.01328 -0.134737,-0.01699 -0.200454,-0.03341 -0.06833,-0.01709 -0.132122,-0.04974 -0.200451,-0.06682 -0.06572,-0.01643 -0.134448,-0.01818 -0.200451,-0.03341 -0.079,-0.01823 -0.155527,-0.04593 -0.233862,-0.06682 -0.08873,-0.02365 -0.181557,-0.03385 -0.267269,-0.06681 -0.06061,-0.02331 -0.106754,-0.07611 -0.167045,-0.100227 -0.05272,-0.02109 -0.113173,-0.01545 -0.167042,-0.03341 -0.04725,-0.01574 -0.087,-0.04933 -0.133636,-0.06682 -0.04299,-0.01611 -0.09143,-0.01532 -0.133633,-0.03341 -0.03691,-0.01582 -0.06432,-0.04886 -0.100227,-0.06682 -0.0315,-0.01574 -0.06786,-0.01953 -0.100226,-0.03341 -0.04578,-0.0196 -0.08575,-0.05314 -0.133633,-0.06682 -0.03212,-0.0092 -0.06747,0.0066 -0.100227,0 -0.0016,-2.65e-4 -0.129016,-0.06497 -0.133636,-0.06682 -0.0327,-0.01307 -0.06753,-0.02032 -0.100224,-0.03341 -0.02313,-0.0092 -0.0437,-0.02416 -0.06682,-0.03341 -0.0327,-0.01307 -0.06753,-0.02032 -0.100227,-0.03341 -0.148484,-0.05939 0.0037,0.0037 -0.100227,-0.100224 -0.01762,-0.01762 -0.04319,-0.02553 -0.06682,-0.03341 -0.01056,-0.0035 -0.02553,0.0079 -0.03341,0 -0.01762,-0.01762 -0.0127,-0.05301 -0.03341,-0.06682 -0.01852,-0.01236 -0.04829,0.01236 -0.06682,0 -0.02072,-0.01381 -0.0127,-0.053 -0.03341,-0.06682 -0.01852,-0.01236 -0.04569,0.007 -0.06682,0 -0.01495,-0.005 -0.02228,-0.02228 -0.03341,-0.03341 -0.02228,-0.02228 -0.04162,-0.04792 -0.06682,-0.06682 -0.186529,-0.139896 0.07861,0.08942 -0.167042,-0.03341 -0.02228,-0.01114 -0.0158,-0.04921 -0.03341,-0.06681 -0.01574,-0.01574 -0.0469,0.0099 -0.06682,0 -0.01408,-0.007 -0.01931,-0.02635 -0.03341,-0.03341 -0.0099,-0.005 -0.02344,0.005 -0.03341,0 -0.02817,-0.01408 -0.03865,-0.05273 -0.06681,-0.06682 -0.01,-0.005 -0.02344,0.005 -0.03341,0 -0.01408,-0.007 -0.01931,-0.02635 -0.03341,-0.03341 -0.01016,-0.0051 -0.08518,0 -0.100227,0 -0.07835,0 0.01574,0.0079 -0.06682,-0.03341 -0.02119,-0.01061 -0.145341,0.01085 -0.167042,0 -0.01408,-0.007 -0.01931,-0.02635 -0.03341,-0.03341 -0.01,-0.005 -0.02228,0 -0.03341,0 -0.01114,0 -0.02228,0 -0.03341,0 -0.07795,0 -0.155908,0 -0.23386,0 -0.02196,0 -0.08138,0.0063 -0.100226,0 -0.159991,-0.05333 0.05348,-0.03341 -0.200454,-0.03341 z"
       transform="matrix(1.4405782,0,0,1.4405782,-26.535517,-44.496853)" />
    <path
       style="fill:none;stroke:#000000;stroke-width:0.18366466px;stroke-linecap:butt;stroke-linejoin:miter;stroke-opacity:1"
       d="m 58.899522,98.619192 c -0.01986,0.03987 -0.02961,0.08411 -0.03176,0.128476 -0.0023,0.04809 -6.09e-4,0.09688 -0.01205,0.144107 -0.01096,0.04526 -0.03512,0.08571 -0.06053,0.124236 -0.02542,0.03855 -0.05473,0.07595 -0.06896,0.120298 -0.01501,0.0468 -0.02053,0.09575 -0.03473,0.142965 -0.01976,0.06569 -0.03861,0.132095 -0.06775,0.194342 -0.03158,0.06747 -0.07567,0.129098 -0.09826,0.200748 -0.02645,0.08388 -0.02673,0.17265 -0.05106,0.257436 -0.01227,0.04275 -0.04551,0.07407 -0.06809,0.11117 -0.02906,0.0478 -0.05798,0.0965 -0.07585,0.14949 -0.02217,0.0657 -0.02841,0.13894 -0.06573,0.19739 -0.02013,0.0315 -0.06081,0.044 -0.0734,0.0826 -0.01621,0.0496 -0.0135,0.10532 -0.04633,0.14991 -0.01784,0.0242 -0.04599,0.0452 -0.04941,0.0761 -0.0025,0.0223 0.0076,0.0442 -6.08e-4,0.0669 -0.01409,0.0388 -0.02239,0.0833 -0.05229,0.11268 -0.0279,0.0274 -0.04961,0.0599 -0.06879,0.094 -0.02084,0.037 -0.03364,0.0777 -0.04527,0.11846 -0.01308,0.0458 -0.02429,0.0928 -0.04795,0.13469 -0.01834,0.0324 -0.05056,0.0623 -0.05027,0.10007 1.89e-4,0.0242 0.0077,0.0963 0.0024,0.0726 -0.001,-0.004 -0.0043,-0.0115 -0.0098,-0.008 -0.01295,0.008 -0.02098,0.0221 -0.02595,0.0357 -0.0048,0.0131 0.0042,0.0257 -0.0032,0.0397 -0.0086,0.0161 -0.0089,0.044 -0.02688,0.0479 -0.0075,0.002 -0.0033,-0.008 -0.0035,-0.0112 -5.81e-4,-0.008 0.0035,-0.0282 -0.0074,-0.0264 -0.01285,0.002 -0.02711,0.0112 -0.03003,0.0234 -0.0054,0.0225 0.01468,0.0453 3.85e-4,0.0675 -0.0068,0.0106 -0.0156,0.0397 -0.02498,0.0296 -0.0034,-0.004 -0.0053,-0.006 -0.005,0.008 1.93e-4,0.007 2.57e-4,0.0146 2.58e-4,0.022"
       id="path907"
       inkscape:connector-curvature="0"
       inkscape:path-effect="#path-effect909"
       inkscape:original-d="m 58.899522,98.619192 c -0.06204,0.127574 -0.0037,0.207815 -0.06682,0.334087 -0.02904,0.05808 -0.07385,0.107707 -0.100227,0.167045 -0.01865,0.04196 -0.02021,0.08965 -0.03341,0.133635 -0.02024,0.06746 -0.03973,0.135438 -0.06682,0.200451 -0.02873,0.06896 -0.07469,0.130247 -0.100225,0.200451 -0.03805,0.104648 -0.02315,0.198816 -0.06682,0.300681 -0.01582,0.0369 -0.0469,0.06536 -0.06682,0.100228 -0.02471,0.0432 -0.0472,0.0879 -0.06682,0.13363 -0.0021,0.005 -0.06581,0.19877 -0.06682,0.20045 -0.01622,0.027 -0.05273,0.0387 -0.06681,0.0668 -0.02053,0.0411 -0.01532,0.0914 -0.03341,0.13364 -0.01582,0.0369 -0.05191,0.0629 -0.06682,0.10022 -0.0083,0.0207 0.007,0.0457 0,0.0668 -0.05857,0.17571 -0.06032,0.0872 -0.133636,0.23386 -0.0315,0.063 -0.04066,0.13506 -0.06682,0.20045 -0.01849,0.0462 -0.05474,0.0853 -0.06681,0.13364 0,0.15208 0.01574,0.002 -0.03341,0.10022 -0.005,0.01 0.005,0.0234 0,0.0334 -0.06952,0.13904 0.0024,-0.0357 -0.06682,0.0334 -0.01574,0.0157 0.0099,0.0469 0,0.0668 -0.04128,0.0826 -0.03341,-0.0115 -0.03341,0.0668"
       transform="matrix(1.4405782,0,0,1.4405782,-26.535517,-44.496853)" />
    <path
       style="fill:none;stroke:#000000;stroke-width:0.18366466px;stroke-linecap:butt;stroke-linejoin:miter;stroke-opacity:1"
       d="m 57.195677,99.654861 c 0.04617,0.0015 0.08453,0.03061 0.119914,0.05708 0.03376,0.02525 0.07273,0.04857 0.116366,0.04765 0.03279,-6.87e-4 0.06336,-0.01624 0.09697,-0.01265 0.03194,0.0034 0.0614,0.01831 0.08518,0.03958 0.02311,0.02067 0.04971,0.03658 0.07837,0.04863 0.066,0.02775 0.133678,0.05123 0.201053,0.07543 0.05017,0.01802 0.103547,0.02423 0.15434,0.03988 0.0651,0.02005 0.12828,0.04574 0.191284,0.07147 0.04677,0.0191 0.09513,0.0338 0.142038,0.0525 0.03002,0.012 0.0624,0.0188 0.09504,0.0132 0.02529,-0.004 0.05512,-0.006 0.07477,0.0146 0.01948,0.0202 0.0322,0.0475 0.05953,0.0597 0.03006,0.0134 0.06734,0.01 0.09344,0.0306 0.01271,0.0101 0.01822,0.0292 0.03635,0.0324 0.01135,0.002 0.02203,-0.004 0.034,0.002 0.02596,0.0133 0.0571,0.0216 0.07473,0.0468 0.0075,0.0107 0.01879,0.0181 0.03332,0.0178 0.0085,-1.3e-4 0.0162,-0.003 0.02558,0.002 0.02262,0.0117 0.05113,0.017 0.06705,0.0377 0.0086,0.0112 0.01679,0.0254 0.03281,0.0269 0.02389,0.002 0.04752,-0.005 0.07165,0.001 0.03575,0.01 0.07284,0.019 0.104108,0.0388 0.02084,0.0132 0.0429,0.0268 0.06865,0.0272 0.03567,5.4e-4 0.07223,-0.009 0.107066,0.005 0.03409,0.0133 0.06818,0.0289 0.105975,0.0287 0.04359,-2.9e-4 0.08744,-0.0125 0.130789,-0.003 0.05149,0.0109 0.08912,0.0526 0.138709,0.068 0.0091,0.003 0.01739,-0.003 0.02635,-0.003 0,0 0.0071,0.003 0.0071,0.003 0.0061,0.006 0.01351,0.014 0.01148,0.024 0,0 -0.0048,0.006 -0.0048,0.006 0,0 -0.0067,0.003 -0.0067,0.003 0,0 -0.0031,0.001 -0.0031,0.001 0.01215,-9.5e-4 0.02436,-9.9e-4 0.03654,-0.001"
       id="path911"
       inkscape:connector-curvature="0"
       inkscape:path-effect="#path-effect913"
       inkscape:original-d="m 57.195677,99.654861 c 0.07813,0.0028 0.127979,0.08211 0.200454,0.100227 0.07424,0.01857 0.08352,-0.02784 0.167042,0 0.03809,0.0127 0.06432,0.04886 0.100226,0.06682 0.04707,0.02355 0.199803,0.08095 0.267269,0.100227 0.04415,0.01262 0.09008,0.01889 0.133636,0.03341 0.09168,0.03056 0.175588,0.06968 0.267269,0.100225 0.03341,0.0111 0.06549,0.0276 0.100227,0.0334 0.03295,0.006 0.06921,-0.0124 0.100226,0 0.02924,0.0117 0.03981,0.0506 0.06682,0.0668 0.0302,0.0181 0.06873,0.0177 0.100227,0.0334 0.01407,0.007 0.01931,0.0263 0.03341,0.0334 0.0099,0.005 0.02228,0 0.03341,0 0.02228,0.0111 0.0461,0.0196 0.06682,0.0334 0.0131,0.009 0.01931,0.0264 0.03341,0.0334 0.0099,0.005 0.02228,0 0.03341,0 0.02228,0.0111 0.0461,0.0196 0.06682,0.0334 0.0131,0.009 0.01847,0.0284 0.03341,0.0334 0.02114,0.007 0.04498,-0.004 0.06682,0 0.03453,0.007 0.06753,0.0203 0.100227,0.0334 0.02312,0.009 0.0424,0.0285 0.06682,0.0334 0.03276,0.007 0.06727,-0.005 0.100224,0 0.03474,0.006 0.06549,0.0276 0.100227,0.0334 0.05492,0.009 0.113025,-0.0135 0.167045,0 0.04832,0.0121 0.08639,0.0511 0.133633,0.0668 0.01056,0.004 0.02553,-0.008 0.03341,0 0.04454,0.0445 -0.05568,0.0334 0.03341,0.0334"
       transform="matrix(1.4405782,0,0,1.4405782,-26.535517,-44.496853)" />
    <path
       style="fill:none;stroke:#000000;stroke-width:0.26458332px;stroke-linecap:butt;stroke-linejoin:miter;stroke-opacity:1"
       d="m 81.717657,96.414218 c 0.05995,0.02409 0.11591,0.06102 0.181483,0.06893 0.07961,0.0096 0.159442,-0.0021 0.239249,-0.0021 0.424398,-4.3e-5 0.848805,0.0027 1.273194,-6.5e-5 0.197731,-0.0013 0.396178,-0.01254 0.59327,0.01068 0.186621,0.02199 0.372074,0.05938 0.560806,0.05921 0.176174,-1.56e-4 0.353193,-0.01647 0.528733,0.008 0.150564,0.02102 0.299602,0.06069 0.452693,0.05803 0.121253,-0.0021 0.243803,-0.01801 0.36413,0.0061 0.120662,0.02421 0.233611,0.08473 0.356831,0.09269 0.0758,0.0049 0.151837,8.81e-4 0.227706,-1.33e-4 0.07771,-0.001 0.155723,-0.0075 0.233208,-7e-4 0.08139,0.0071 0.159852,0.03512 0.242114,0.03552 0.05337,2.6e-4 0.1067,-0.0021 0.160081,-0.0021 0.09075,4.8e-5 0.181506,-8.75e-4 0.272251,7.3e-5 0.04259,4.45e-4 0.09083,0.01254 0.127365,-0.01678 0.03607,-0.02896 0.08448,-0.01732 0.126893,-0.01564 0.0068,2.69e-4 0.02693,-7.23e-4 0.02038,0.0011 -0.0086,0.0024 -0.02922,-0.0067 -0.01221,-0.01455 0.04152,-0.0192 0.08689,-0.02104 0.132917,-0.02104 0.1334,0 0.266799,0 0.400199,0"
       id="path999"
       inkscape:connector-curvature="0"
       inkscape:path-effect="#path-effect1001"
       inkscape:original-d="m 81.717657,96.414218 c 0.05568,0.02228 0.107889,0.05696 0.167042,0.06682 0.07689,0.01281 0.155908,0 0.233862,0 0.111361,0 0.222724,0 0.334087,0 0.311814,0 0.623628,0 0.935442,0 0.167045,0 0.334413,-0.01042 0.501132,0 0.190249,0.01188 0.377674,0.05529 0.567947,0.06682 0.177852,0.01077 0.356753,-0.01185 0.53454,0 0.157141,0.01048 0.310695,0.05474 0.46772,0.06682 0.133241,0.01024 0.268303,-0.01659 0.400904,0 0.136684,0.01709 0.264682,0.07979 0.400905,0.100227 0.06496,0.0097 0.380024,-0.0073 0.467722,0 0.06751,0.0056 0.132991,0.02728 0.200451,0.03341 0.05545,0.005 0.111363,0 0.167045,0 0.06682,0 0.133633,0 0.200451,0 0.03341,0 0.06682,0 0.100227,0 0.03341,0 0.06747,0.0066 0.100227,0 0.02442,-0.0049 0.0424,-0.02853 0.06682,-0.03341 0.254862,0 -0.02635,0.01495 0.167042,-0.03341 0.02162,-0.0054 0.04454,0 0.06682,0 0.02228,0 0.04455,0 0.06682,0 0.111361,0 0.222724,0 0.334087,0" />
    <path
       style="fill:none;stroke:#000000;stroke-width:0.26458332px;stroke-linecap:butt;stroke-linejoin:miter;stroke-opacity:1"
       d="m 84.757846,95.044463 c 0.06682,0.05568 0.120017,0.133954 0.200454,0.167044 0.04087,0.01682 0.07862,0.0397 0.112589,0.06822 0.03647,0.03062 0.07395,0.06095 0.118067,0.08027 0.04474,0.01959 0.08961,0.03942 0.136842,0.05196 0.0962,0.02554 0.177725,0.08502 0.259507,0.139076 0.04401,0.02909 0.09061,0.05398 0.138786,0.07552 0.06378,0.02852 0.129912,0.05156 0.193518,0.08069 0.02587,0.01185 0.05327,0.0025 0.08016,0.01329 0.06982,0.0281 0.13736,0.06159 0.204164,0.09614 0.09139,0.04727 0.175216,0.108123 0.269425,0.150306 0.07986,0.03576 0.161524,0.0672 0.241924,0.101728 0.145696,0.06257 0.289938,0.128713 0.437459,0.186872 0.06719,0.02649 0.137346,0.04797 0.197222,0.09022 0.02571,0.01814 0.05011,0.03623 0.08291,0.0424 0.05056,0.0095 0.104798,0.01843 0.144389,0.05398 0.03352,0.0301 0.07405,0.05092 0.118186,0.06011 0.05367,0.01118 0.09713,0.04579 0.1451,0.06993 0.03072,0.01546 0.131263,5.37e-4 0.09893,0.0067 -0.01667,0.0032 -0.0019,0.01766 0.006,0.02362 0.03663,0.02756 0.08467,0.01204 0.126612,0.01195 0.03323,-6.8e-5 0.07595,-0.02039 0.100512,0.0029 0.01349,0.01279 0.021,0.03759 0.04468,0.03271 0.02653,-0.0055 0.05512,-0.0073 0.07812,0.0084 0.0067,0.0046 0.02578,0.0082 0.01952,0.01835 -0.0033,0.0053 -0.03325,0.0052 -0.0091,0.005 0.04296,-4.7e-4 0.08635,-0.0062 0.128894,-2.58e-4 0.01071,0.0015 0.03667,-0.01355 0.03341,0 -0.0073,0.03033 -0.04372,0.04166 -0.07034,0.04745 -0.04323,0.0094 -0.08041,0.03338 -0.121406,0.04947 -0.05265,0.02065 -0.113588,0.01607 -0.162381,0.04694 -0.03795,0.02401 -0.07274,0.05238 -0.111267,0.07579 -0.117127,0.07117 -0.236313,0.138853 -0.351921,0.212596 -0.100942,0.06439 -0.197694,0.135028 -0.29245,0.2082 -0.09081,0.07012 -0.177072,0.146347 -0.273668,0.208846 -0.08066,0.05219 -0.165505,0.09753 -0.252163,0.138921 -0.05903,0.02819 -0.114795,0.06443 -0.176927,0.0849 -0.04388,0.01445 -0.08067,0.04327 -0.107913,0.08031 -0.02541,0.03454 -0.05939,0.0648 -0.101233,0.07362 -0.02631,0.0055 -0.03346,0.05384 -0.05767,0.04392 -0.03169,-0.01299 -0.051,0.0204 -0.06614,0.04179 -0.0114,0.01611 -0.02862,0.02614 -0.05099,0.02433 -0.0183,-0.0015 -0.03401,0.01308 -0.05096,0.019 -0.02105,0.0074 -0.03099,0.02798 -0.0481,0.04102 -0.02654,0.02021 -0.05968,-2.89e-4 -0.09069,0.0097 -0.0206,0.0066 -0.07424,0.0038 -0.06157,0.02184 0.0041,0.0058 0.01705,0.01094 0.0088,0.01976 -0.02115,0.02255 -0.05195,0.0241 -0.08201,0.02356 -0.02817,-5.02e-4 -0.0687,-0.02545 -0.08487,-0.0019 -0.0081,0.01172 0.01344,0.03417 -0.0066,0.03752 -0.02469,0.0041 -0.05009,-0.01449 -0.07445,0.0061 -0.02227,0.0188 -0.03407,0.06259 -0.06932,0.05663 -0.02333,-0.0039 -0.05453,0.0071 -0.06198,0.02764 -0.0036,0.0099 0.0149,0.0056 0.01919,0.0052 0.0079,-6.52e-4 0.03046,-0.0065 0.02361,-0.0025 -0.02916,0.01695 -0.06346,0.03257 -0.09774,0.03643 -0.01453,0.0016 -0.0298,-0.0058 -0.0427,0.0072 -0.02673,0.02705 -0.04781,0.06188 -0.08743,0.07314 -0.04042,0.01148 -0.08068,0.02349 -0.121157,0.03485 -0.02833,0.0079 -0.04704,0.02775 -0.07326,0.04551 -0.02374,0.01608 -0.05555,0.0091 -0.08288,0.0083 -0.0201,-5.98e-4 -0.04019,-0.0017 -0.0603,-0.0019"
       id="path1003"
       inkscape:connector-curvature="0"
       inkscape:path-effect="#path-effect1005"
       inkscape:original-d="m 84.757846,95.044463 c 0.06682,0.05568 0.133636,0.111363 0.200454,0.167044 0.02228,0.01114 0.0461,0.01961 0.06682,0.03341 0.04633,0.03088 0.08496,0.07318 0.133633,0.100224 0.05242,0.02913 0.112448,0.042 0.167045,0.06682 0.138414,0.03701 0.240802,0.141978 0.367495,0.200454 0.457251,0.211039 0.08126,-0.0095 0.501129,0.200451 0.08031,0.04015 0.153556,0.09348 0.233863,0.133636 0.07586,0.03793 0.155905,0.06682 0.233859,0.100224 0.155909,0.06682 0.311148,0.135215 0.467723,0.200453 0.05536,0.02307 0.113403,0.04 0.167042,0.06682 0.03591,0.01797 0.06682,0.04454 0.100227,0.06682 0.04454,0.01114 0.09143,0.01532 0.133636,0.03341 0.0369,0.01582 0.06431,0.04886 0.100224,0.06682 0.0315,0.01574 0.06753,0.02032 0.100227,0.03341 0.04624,0.0185 0.08532,0.05474 0.133635,0.06682 0.152085,0 0.0019,-0.01574 0.100224,0.03341 0.02201,0.01101 0.169559,-0.01029 0.200454,0 0.01495,0.005 0.01847,0.02843 0.03341,0.03341 0.02114,0.007 0.04569,-0.007 0.06682,0 0.123849,0.04128 -0.04072,0.03341 0.06682,0.03341 0.03341,0 0.06682,0 0.100227,0 0.01114,0 0.03341,-0.01114 0.03341,0 0,0.01574 -0.01931,0.02635 -0.03341,0.03341 -0.0315,0.01574 -0.06753,0.02032 -0.100227,0.03341 -0.02312,0.0093 -0.04319,0.02553 -0.06682,0.03341 -0.04356,0.01453 -0.09143,0.01532 -0.133636,0.03341 -0.03691,0.01582 -0.06618,0.04554 -0.100227,0.06682 -0.110127,0.06883 -0.22452,0.130728 -0.334086,0.200453 -0.137843,0.08772 -0.211744,0.138706 -0.334087,0.23386 -0.157147,0.122225 -0.189479,0.163426 -0.367496,0.267269 -0.107545,0.06274 -0.222723,0.111363 -0.334087,0.167045 -0.02228,0.01114 -0.04689,0.01847 -0.06682,0.03341 -0.0378,0.02835 -0.06091,0.07402 -0.100225,0.100224 -0.02072,0.01381 -0.0461,0.01961 -0.06682,0.03341 -0.0131,0.0087 -0.01931,0.02635 -0.03341,0.03341 -0.0099,0.005 -0.02344,-0.005 -0.03341,0 -0.02817,0.01408 -0.03865,0.05273 -0.06682,0.06682 -0.01,0.005 -0.02228,0 -0.03341,0 -0.02228,0.01114 -0.0461,0.0196 -0.06682,0.03341 -0.0131,0.0087 -0.01847,0.02843 -0.03341,0.03341 -0.02114,0.007 -0.04521,-0.0054 -0.06682,0 -0.16133,0.04033 0.0016,0.01588 -0.100227,0.06682 -0.02069,0.01035 -0.123751,-0.0099 -0.133636,0 -0.0079,0.0079 0.0079,0.02553 0,0.03341 -0.01574,0.01574 -0.04689,-0.0099 -0.06681,0 -0.02817,0.01408 -0.03865,0.05273 -0.06682,0.06682 -0.01,0.005 -0.02344,-0.005 -0.03341,0 -0.1529,0.07645 0.141767,-0.01384 -0.100227,0.06682 -0.01056,0.0035 -0.02416,-0.0062 -0.03341,0 -0.02622,0.01746 -0.03981,0.05061 -0.06682,0.06682 -0.0302,0.01812 -0.06682,0.02228 -0.100225,0.03341 -0.03341,0.01114 -0.06873,0.01765 -0.100226,0.03341 -0.01408,0.007 -0.01847,0.02843 -0.03341,0.03341 -0.01797,0.006 -0.105349,0 -0.133636,0" />
    <path
       style="fill:none;stroke:#000000;stroke-width:0.26458332px;stroke-linecap:butt;stroke-linejoin:miter;stroke-opacity:1"
       d="m 82.519466,100.65712 c 0.261702,4e-5 0.52342,-0.003 0.785106,7e-5 0.111407,0.001 0.223452,0.007 0.334211,-0.009 0.08025,-0.0121 0.160589,-0.0256 0.242018,-0.0265 0.0843,-9.2e-4 0.168571,0.003 0.252882,0.002 0.100175,-1.5e-4 0.200372,0.002 0.300526,-3.4e-4 0.0812,-0.002 0.162406,-0.001 0.243571,0.003 0.139549,0.008 0.27841,0.0247 0.416726,0.0447 0.08513,0.0123 0.170335,0.0241 0.255055,0.0391 0.08031,0.0142 0.162034,0.018 0.243429,0.0156 0.108115,-0.003 0.216275,-0.002 0.324419,-0.002 1.128007,0 2.256014,0 3.384021,0"
       id="path1007"
       inkscape:connector-curvature="0"
       inkscape:path-effect="#path-effect1009"
       inkscape:original-d="m 82.519466,100.65712 c 0.256133,0 0.512265,0 0.7684,0 0.08909,0 0.178353,0.006 0.267269,0 0.08961,-0.006 0.17766,-0.0278 0.267269,-0.0334 0.08892,-0.006 0.178181,0 0.267269,0 0.100227,0 0.200453,0 0.300678,0 0.07795,0 0.156027,-0.004 0.233862,0 0.265338,0.0147 0.361331,0.0325 0.601356,0.0668 0.07795,0.0111 0.155289,0.0282 0.23386,0.0334 0.08889,0.006 0.178181,0 0.267271,0 0.08909,0 0.178179,0 0.267269,0 0.267269,0 0.534538,0 0.801809,0 0.835216,0 1.670434,0 2.505652,0" />
    <path
       style="fill:none;stroke:#000000;stroke-width:0.26458332px;stroke-linecap:butt;stroke-linejoin:miter;stroke-opacity:1"
       d="m 87.731221,99.788497 c 0.06441,0.03904 0.132831,0.07224 0.192489,0.118489 0.04308,0.03339 0.08428,0.06953 0.132453,0.09593 0.07377,0.0404 0.151659,0.0726 0.226044,0.11189 0.09476,0.0501 0.189458,0.10168 0.291697,0.1354 0.09786,0.0323 0.198017,0.0582 0.292668,0.0998 0.07216,0.0317 0.14393,0.0642 0.217369,0.0929 0.176323,0.069 0.356039,0.12902 0.531785,0.19948 0.05837,0.0234 0.115519,0.0509 0.176686,0.0662 0.0519,0.013 0.09778,0.0408 0.142547,0.0687 0.02985,0.0186 0.06516,0.0184 0.098,0.0104 0.03431,-0.008 0.05992,0.0185 0.07875,0.0441 0.01146,0.0156 0.02683,0.0326 0.05008,0.027 0.01345,-0.003 0.05113,-0.0143 0.04432,0.006 -0.0047,0.0141 -0.0059,0.031 0.0081,0.04 0.02208,0.0142 0.03115,0.046 0.05611,0.053 0.01429,0.004 0.02921,-0.005 0.04314,0.007 0.02419,0.0206 0.03479,0.063 0.07364,0.0618 0.01782,-5.2e-4 0.04724,-0.016 0.05555,0.005 0.0052,0.013 -0.0023,0.032 -0.02084,0.0294 -0.03576,-0.005 -0.07178,0.007 -0.106853,0.0141 -0.06841,0.0136 -0.135644,0.0322 -0.202899,0.0506 -0.05197,0.0143 -0.104024,0.0312 -0.157941,0.0349 -0.05369,0.004 -0.107344,-0.009 -0.161039,-2.4e-4 -0.120509,0.019 -0.236145,0.0614 -0.357842,0.0747 -0.08939,0.01 -0.180209,0.0143 -0.266771,0.0412 -0.0665,0.0207 -0.132332,0.044 -0.201325,0.0559 -0.129388,0.0222 -0.263975,0.0175 -0.389086,0.0614 -0.04745,0.0166 -0.09456,0.0371 -0.133451,0.0699 -0.04352,0.0367 -0.08295,0.0784 -0.131608,0.109 -0.06478,0.0408 -0.139032,0.0618 -0.209748,0.0895 -0.09093,0.0357 -0.175104,0.0865 -0.254483,0.14298 -0.07376,0.0525 -0.152836,0.0967 -0.230413,0.14312 -0.05189,0.0311 -0.100789,0.0666 -0.15193,0.0989 -0.07256,0.0459 -0.147071,0.0886 -0.224318,0.12617 -0.104518,0.0508 -0.210219,0.0994 -0.310229,0.15906 -0.05611,0.0335 -0.109642,0.0726 -0.171988,0.0942 -0.04674,0.0162 -0.09447,0.0308 -0.143396,0.0378 -0.06272,0.009 -0.126208,-0.0172 -0.18817,-0.002 -0.03202,0.008 -0.0555,0.0409 -0.09189,0.0337 -0.02071,-0.004 -0.04727,-0.006 -0.05815,0.0182 -0.0035,0.008 -0.01858,0.0239 -0.02327,0.01 -0.003,-0.009 -0.0045,-0.0332 0.0063,-0.0282 0.01227,0.006 -0.0017,0.0237 0,0.0334"
       id="path1011"
       inkscape:connector-curvature="0"
       inkscape:path-effect="#path-effect1013"
       inkscape:original-d="m 87.731221,99.788497 c 0.05568,0.03341 0.113014,0.06421 0.167044,0.100227 0.04633,0.03088 0.08589,0.07158 0.133633,0.100224 0.06406,0.03843 0.133636,0.06682 0.200454,0.100222 0.08909,0.0446 0.175165,0.0957 0.267269,0.13364 0.09769,0.0402 0.201758,0.0631 0.300678,0.10023 0.07941,0.0298 0.155117,0.0687 0.23386,0.10022 0.176686,0.0707 0.356928,0.13214 0.53454,0.20046 0.05597,0.0215 0.110892,0.0458 0.167045,0.0668 0.03297,0.0124 0.06786,0.0195 0.100224,0.0334 0.04578,0.0196 0.08575,0.0531 0.133635,0.0668 0.03212,0.009 0.06921,-0.0124 0.100227,0 0.02925,0.0117 0.04061,0.0493 0.06682,0.0668 0.01852,0.0123 0.05107,-0.0157 0.06682,0 0.0079,0.008 -0.005,0.0234 0,0.0334 0.007,0.0141 0.02228,0.0223 0.03341,0.0334 0.01114,0.0111 0.01931,0.0264 0.03341,0.0334 0.01,0.005 0.02344,-0.005 0.03341,0 0.02817,0.0141 0.03694,0.0569 0.06682,0.0668 0.02114,0.007 0.04689,-0.01 0.06682,0 0.0099,0.005 0.0079,0.0255 0,0.0334 -0.0079,0.008 -0.02244,-0.002 -0.03341,0 -0.05601,0.009 -0.111715,0.0206 -0.167045,0.0334 -0.08948,0.0206 -0.176506,0.0528 -0.267269,0.0668 -0.05503,0.008 -0.111921,-0.008 -0.167044,0 -0.101637,0.0145 -0.19957,0.049 -0.300678,0.0668 -0.08842,0.0156 -0.179229,0.0158 -0.267269,0.0334 -0.0795,0.0159 -0.154363,0.0509 -0.23386,0.0668 -0.181369,0.0363 -0.331152,0.0152 -0.501131,0.10022 -0.06378,0.0319 -0.107712,0.0941 -0.167045,0.13364 -0.106272,0.0708 -0.18493,0.0758 -0.300678,0.13363 -0.123449,0.0617 -0.161261,0.10079 -0.267269,0.16705 -0.05506,0.0344 -0.111979,0.0658 -0.167044,0.10022 -0.03405,0.0213 -0.06618,0.0455 -0.100224,0.0668 -0.05506,0.0344 -0.110038,0.0691 -0.167045,0.10022 -0.109305,0.0596 -0.225248,0.10658 -0.334087,0.16705 -0.177228,0.0985 -0.159901,0.12091 -0.367495,0.16704 -0.06523,0.0145 -0.134933,-0.0131 -0.200451,0 -0.02442,0.005 -0.04266,0.0274 -0.06682,0.0334 -0.02162,0.005 -0.04569,-0.007 -0.06682,0 -0.01495,0.005 -0.01765,0.0334 -0.03341,0.0334 -0.01114,0 -0.01114,-0.0334 0,-0.0334 0.01114,0 0,0.0223 0,0.0334" />
    <path
       style="fill:none;stroke:#000000;stroke-width:0.26458332px;stroke-linecap:butt;stroke-linejoin:miter;stroke-opacity:1"
       d="m 102.69831,94.643558 c -0.0359,0.07101 -0.0528,0.155152 -0.11048,0.212143 -0.0435,0.04301 -0.10665,0.06121 -0.14371,0.112297 -0.0317,0.0437 -0.0566,0.09301 -0.1005,0.127185 -0.078,0.06062 -0.17227,0.100112 -0.23809,0.176417 -0.0719,0.08333 -0.12399,0.181104 -0.19627,0.264479 -0.0667,0.07696 -0.13868,0.150288 -0.22332,0.20794 -0.0975,0.06644 -0.19248,0.137861 -0.27628,0.220977 -0.18528,0.183767 -0.36334,0.374947 -0.55341,0.553754 -0.20641,0.19418 -0.43345,0.365745 -0.63395,0.566106 -0.0842,0.08409 -0.16488,0.171673 -0.25435,0.250372 -0.131207,0.115407 -0.26538,0.229671 -0.416052,0.318723 -0.07698,0.0455 -0.171356,0.0638 -0.234119,0.131685 -0.04104,0.04439 -0.0769,0.09661 -0.133645,0.122816 -0.04975,0.02297 -0.105358,0.03634 -0.148818,0.06981 -0.03319,0.02556 -0.06832,0.05316 -0.107531,0.07019 -0.0518,0.0225 -0.10218,0.0504 -0.133742,0.09917 -0.03271,0.05053 -0.09496,0.05764 -0.138,0.09627 -0.01413,0.01268 -0.05951,0.03543 -0.04062,0.04045 0.01524,0.004 -0.01807,0.01357 -0.02317,0.01605 -0.03618,0.01761 -0.145229,0.06942 -0.108666,0.05258 0.02219,-0.01022 0.01906,0.01491 0.0072,0.02675 -0.01702,0.01696 -0.02962,0.02796 -0.06134,0.0368 -0.0277,0.0077 -0.01183,0.04467 0.01659,0.03998 0.03966,-0.0065 0.07985,-0.0044 0.119857,-0.0044 0.190801,9.3e-5 0.381587,6.62e-4 0.572388,0.003 0.16506,0.0021 0.330515,9.25e-4 0.494835,-0.01708 0.118197,-0.01295 0.236888,-0.0234 0.355926,-0.0216 0.11292,0.0017 0.22585,0.0022 0.33878,0.0022 0.89527,-4.8e-5 1.79054,3.91e-4 2.68581,-7.1e-5 0.0853,-4.4e-5 0.17218,-0.01281 0.25604,0.0055 0.0555,0.0121 0.11019,0.02925 0.16771,0.03027 0.0713,0.0013 0.1426,-0.0023 0.21396,-0.0023 0.228,0 0.46017,0.04333 0.68401,0 0.008,-0.0016 0.0503,0.0013 0.0266,0.0047 -0.0162,0.0024 -0.0369,-0.0047 -0.0124,-0.0047 0.18735,4.6e-5 0.37473,-0.003 0.56207,6.9e-5 0.0586,9.58e-4 0.12118,0.01191 0.17553,-0.01606 0.0366,-0.01885 0.0808,-0.0338 0.11875,-0.01875 0.0235,0.0093 0.0681,-0.01906 0.0708,0.01804 0.002,0.02818 -0.029,0.0059 -0.0394,0.0167 -0.0317,0.03294 -0.0376,0.0853 -0.0809,0.109242 -0.0546,0.03016 -0.11845,0.03646 -0.17255,0.06892 -0.0802,0.04811 -0.15447,0.105037 -0.23227,0.156834 -0.051,0.03394 -0.20542,0.13328 -0.15278,0.102001 0.004,-0.0023 0.0267,-0.01941 0.008,-0.0081 -0.1062,0.06566 -0.21322,0.130304 -0.31572,0.201597 -0.0794,0.05525 -0.15975,0.109554 -0.24619,0.153595 -0.0978,0.04984 -0.19807,0.09878 -0.27975,0.174043 -0.0779,0.0718 -0.14916,0.153127 -0.24339,0.204942 -0.10754,0.05913 -0.22679,0.09531 -0.3287,0.165317 -0.0948,0.06512 -0.18177,0.140529 -0.27378,0.209444 -0.26322,0.197148 -0.52368,0.398038 -0.78947,0.591708 -0.10913,0.0795 -0.22279,0.15507 -0.31453,0.2556 -0.057,0.0624 -0.11443,0.12482 -0.18168,0.17672 -0.062,0.0478 -0.12445,0.0953 -0.19136,0.13641 -0.03,0.0185 -0.063,0.005 -0.0953,0.0259 -0.0635,0.042 -0.1242,0.0884 -0.18026,0.13974 -0.0491,0.0449 -0.0841,0.10559 -0.1392,0.14287 -0.0737,0.0499 -0.15734,0.0878 -0.22048,0.15103 -0.0381,0.0382 -0.0724,0.0806 -0.11769,0.11123 -0.0472,0.032 -0.0967,0.0637 -0.12834,0.11298 -0.027,0.042 -0.0517,0.0896 -0.099,0.11271 -0.0456,0.0222 -0.0993,0.0333 -0.13351,0.0738 -0.0395,0.0469 -0.0889,0.0847 -0.12651,0.13312 -0.0211,0.0271 -0.097,-0.0167 -0.0787,0.0141 0.007,0.0122 0.006,0.037 -0.0145,0.0259 -0.0203,-0.0111 -0.0109,0.0123 -0.0144,0.026 -0.006,0.0229 -0.0327,-0.003 -0.049,0.0188 -0.0329,0.0436 -0.08969,0.0579 -0.136892,0.0807 -0.06732,0.0325 -0.134536,0.0653 -0.201573,0.0984 -0.03559,0.0176 -0.05454,0.0844 -0.09105,0.076 -0.04717,-0.0108 -0.05289,0.066 -0.09171,0.0675 -0.04916,0.002 -0.105406,-0.0157 -0.14817,0.0149 -0.02455,0.0176 -0.03638,0.0506 -0.06855,0.061 -0.03192,0.0104 -0.05125,0.0364 -0.07877,0.0552 -0.03158,0.0216 -0.07083,-0.0144 -0.09833,0.004 -0.01957,0.0129 -0.03528,0.0261 -0.03827,0.0582 -0.0022,0.0232 -0.05741,-0.007 -0.03563,0.0242 0.01807,0.0261 -0.05772,0.0231 -0.02942,0.007 0.03233,-0.0188 0.101896,-0.0895 0.0657,-0.0863 -0.02841,0.003 0.0012,-0.0246 0.0085,-0.0338 0.03086,-0.0386 0.05959,-0.0794 0.09764,-0.11174 0.05081,-0.0431 0.06736,-0.11419 0.120416,-0.15513 0.04663,-0.036 0.0716,-0.0905 0.104646,-0.13759 0.03815,-0.0544 0.0991,-0.0981 0.111564,-0.16592 0.0093,-0.0507 0.01275,-0.10623 0.04915,-0.14632 0.03588,-0.0395 0.05357,-0.0901 0.08093,-0.13496 0.04023,-0.0659 0.0636,-0.15192 0.12963,-0.19207 0.04253,-0.0259 0.04414,-0.0807 0.07832,-0.11363 0.027,-0.026 0.05137,-0.0549 0.08021,-0.0788 0.02399,-0.0199 0.09552,-0.0204 0.07375,-0.0613 -0.0138,-0.0259 -0.002,-0.0572 0.0298,-0.0603 0.0624,-0.006 0.0494,-0.085 0.0995,-0.11073 0.0298,-0.0153 0.0443,-0.0477 0.033,-0.0809 -0.005,-0.0159 0.001,-0.0256 0.0232,-0.0234 0.0286,0.003 0.0127,-0.0312 0.0127,-0.0497 0,-0.006 0,-0.012 0,-0.018"
       id="path1023"
       inkscape:connector-curvature="0"
       inkscape:path-effect="#path-effect1025"
       inkscape:original-d="m 102.69831,94.643558 c -0.0334,0.06682 -0.0544,0.141486 -0.10022,0.200454 -0.0342,0.04395 -0.0943,0.06085 -0.13364,0.100226 -0.0394,0.03937 -0.0588,0.09638 -0.10022,0.133633 -0.0712,0.06408 -0.16612,0.09931 -0.23386,0.167045 -0.0787,0.07874 -0.12798,0.182716 -0.20046,0.267269 -0.2278,0.265771 -0.20975,0.17531 -0.50113,0.434314 -0.0266,0.02365 -0.52324,0.525877 -0.56795,0.567946 -0.19529,0.183812 -0.40569,0.35111 -0.60135,0.534541 -0.0804,0.0754 -0.15308,0.158845 -0.23386,0.233859 -0.129247,0.120013 -0.315794,0.274 -0.467723,0.367496 -0.06362,0.03915 -0.139253,0.05739 -0.200451,0.100227 -0.05161,0.03613 -0.08324,0.09584 -0.133636,0.133633 -0.03984,0.02988 -0.08909,0.04454 -0.133636,0.06682 -0.152733,0.07637 0.03453,-0.02072 -0.167042,0.100227 -0.02135,0.01281 -0.0461,0.0196 -0.06682,0.03341 -0.03931,0.02619 -0.06243,0.07188 -0.100227,0.100224 -0.01992,0.01495 -0.0469,0.01847 -0.06682,0.03341 -0.168852,0.12664 0.0281,0.01937 -0.133636,0.100227 -0.178181,0.08909 0.03341,-0.03341 -0.100227,0.100226 -0.0079,0.0079 -0.02553,-0.0079 -0.03341,0 -0.0079,0.0079 -0.0099,0.02843 0,0.03341 0.01992,0.0099 0.04454,0 0.06682,0 0.04454,0 0.08909,0 0.133636,0 0.07795,0 0.155905,0 0.23386,0 0.200451,0 0.401092,0.0087 0.601355,0 0.133972,-0.0058 0.266946,-0.02732 0.400905,-0.03341 0.111249,-0.0051 0.222722,0 0.334082,0 0.1225,0 0.245,0 0.3675,0 0.2784,0 0.55681,0 0.83522,0 0.44545,0 0.89089,0 1.33634,0 0.0891,0 0.17818,0 0.26727,0 0.078,0 0.15618,-0.0065 0.23386,0 0.0566,0.0047 0.1105,0.02827 0.16705,0.03341 0.0665,0.0061 0.13363,0 0.20045,0 0.18931,0 0.37863,0 0.56795,0 0.0557,0 0.11136,0 0.16704,0 0.0111,0 0.0334,-0.01114 0.0334,0 0,0.01114 -0.0446,0 -0.0334,0 0.14477,0 0.28954,0 0.43431,0 0.0446,0 0.0891,0 0.13364,0 0.0445,0 0.0895,0.0063 0.13363,0 0.0349,-0.005 0.0657,-0.0265 0.10023,-0.03341 0.0328,-0.0066 0.0668,0 0.10022,0 0.0111,0 0.0255,-0.0079 0.0334,0 0.008,0.0079 0.008,0.02553 0,0.03341 -0.008,0.0079 -0.0255,-0.0079 -0.0334,0 -0.0284,0.02839 -0.0341,0.07689 -0.0668,0.100224 -0.0488,0.03486 -0.1144,0.0381 -0.16705,0.06682 -0.0705,0.03845 -0.13363,0.08909 -0.20045,0.133636 -0.48013,0.320085 0.11917,-0.07661 -0.46772,0.300678 -0.0675,0.04343 -0.13159,0.09232 -0.20045,0.133636 -0.0983,0.05899 -0.20701,0.100922 -0.30068,0.167042 -0.0967,0.06827 -0.16877,0.168195 -0.26727,0.233862 -0.10359,0.06906 -0.22785,0.102119 -0.33409,0.167042 -0.095,0.05807 -0.17818,0.133636 -0.26727,0.200454 -0.0891,0.06682 -0.17818,0.133631 -0.26727,0.200451 -0.17818,0.13364 -0.35636,0.26727 -0.53453,0.40091 -0.0891,0.0668 -0.18312,0.12751 -0.26727,0.20045 -0.0833,0.0722 -0.14778,0.16499 -0.23387,0.23386 -0.42491,0.33994 -0.1114,0.009 -0.46772,0.30068 -0.0609,0.0499 -0.11136,0.11136 -0.16704,0.16704 -0.0668,0.0446 -0.13707,0.0843 -0.20045,0.13364 -0.0373,0.029 -0.0644,0.0695 -0.10023,0.10022 -0.0423,0.0362 -0.0943,0.0609 -0.13363,0.10023 -0.0394,0.0394 -0.058,0.0974 -0.10023,0.13363 -0.0378,0.0324 -0.0922,0.0392 -0.13363,0.0668 -0.0262,0.0175 -0.0446,0.0446 -0.0668,0.0668 -0.0223,0.0223 -0.0446,0.0445 -0.0668,0.0668 -0.0111,0.0111 -0.0193,0.0264 -0.0334,0.0334 -0.0199,0.01 -0.0511,-0.0157 -0.0668,0 -0.008,0.008 0.008,0.0255 0,0.0334 -0.008,0.008 -0.0255,-0.008 -0.0334,0 -0.008,0.008 0.008,0.0255 0,0.0334 -0.008,0.008 -0.0234,-0.005 -0.0334,0 -0.0141,0.007 -0.0203,0.0247 -0.0334,0.0334 -0.04144,0.0276 -0.08909,0.0446 -0.133633,0.0668 -0.04455,0.0223 -0.08909,0.0445 -0.133633,0.0668 -0.02228,0.0111 -0.0469,0.0185 -0.06682,0.0334 -0.02228,0.0223 -0.04455,0.0446 -0.06682,0.0668 -0.01114,0 -0.02344,-0.005 -0.03341,0 -0.02817,0.0141 -0.03865,0.0527 -0.06682,0.0668 -0.0099,0.005 -0.02228,0 -0.03341,0 -0.02228,0 -0.04521,-0.005 -0.06682,0 -0.09689,0.0242 -0.0391,0.0261 -0.100224,0.0668 -0.02072,0.0138 -0.0461,0.0196 -0.06682,0.0334 -0.0131,0.009 -0.01847,0.0284 -0.03341,0.0334 -0.07939,0.0265 -0.06068,-0.0395 -0.133636,0.0334 -0.0079,0.008 0.0079,0.0255 0,0.0334 -0.0079,0.008 -0.02553,-0.008 -0.03341,0 -0.0079,0.008 0.0079,0.0255 0,0.0334 -0.0079,0.008 -0.03341,0.0111 -0.03341,0 0,-0.0157 0.02466,-0.0203 0.03341,-0.0334 0.104092,-0.15614 -0.06542,0.04 0.100226,-0.16704 0.01968,-0.0246 0.04714,-0.0422 0.06682,-0.0668 0.02508,-0.0313 0.04174,-0.0689 0.06682,-0.10023 0.01968,-0.0246 0.04714,-0.0422 0.06682,-0.0668 0.02508,-0.0314 0.04348,-0.0676 0.06682,-0.10023 0.03237,-0.0453 0.07533,-0.0838 0.100227,-0.13364 0.02053,-0.0411 0.01532,-0.0914 0.03341,-0.13363 0.01582,-0.0369 0.04616,-0.0658 0.06682,-0.10023 0.01281,-0.0214 0.02061,-0.0455 0.03341,-0.0668 0.04131,-0.0689 0.08545,-0.13621 0.133633,-0.20045 0.0094,-0.0126 0.02468,-0.0203 0.03341,-0.0334 0.01381,-0.0207 0.01847,-0.0469 0.03341,-0.0668 0.01889,-0.0252 0.04454,-0.0446 0.06682,-0.0668 0.01114,-0.0111 0.02029,-0.0247 0.03341,-0.0334 0.02072,-0.0138 0.05301,-0.0127 0.06682,-0.0334 0.0124,-0.0185 -0.0124,-0.0483 0,-0.0668 0.0138,-0.0207 0.0492,-0.0158 0.0668,-0.0334 0.0176,-0.0176 0.0196,-0.0461 0.0334,-0.0668 0.0175,-0.0262 0.0569,-0.0369 0.0668,-0.0668 0.007,-0.0211 -0.01,-0.0469 0,-0.0668 0.005,-0.01 0.0255,0.008 0.0334,0 0.008,-0.008 0,-0.0223 0,-0.0334 0,-0.0111 0,-0.0223 0,-0.0334" />
    <path
       style="fill:none;stroke:#000000;stroke-width:0.26458332px;stroke-linecap:butt;stroke-linejoin:miter;stroke-opacity:1"
       d="m 99.056766,102.8621 c 0.04669,-0.0125 0.110409,0.001 0.140478,-0.0392 0.01625,-0.0219 0.01212,-0.0556 0.04,-0.0707 0.03871,-0.0209 0.08084,-0.0345 0.122712,-0.0474 0.04397,-0.0135 0.08839,-0.0261 0.131125,-0.0431 0.05834,-0.0233 0.114658,-0.0524 0.175263,-0.0694 0.04907,-0.0137 0.101398,-0.0166 0.147205,-0.0416 0.05567,-0.0304 0.103914,-0.0735 0.163458,-0.0972 0.06383,-0.0254 0.132214,-0.0373 0.195434,-0.0644 0.0396,-0.017 0.0811,-0.031 0.11739,-0.0546 0,0 0.003,-0.004 0.003,-0.004 -0.006,-0.0118 0.0108,-0.015 0.0181,-0.0178 0.0644,-0.0249 0.12946,-0.048 0.19562,-0.0676 0.0302,-0.009 0.0895,-0.0579 0.0907,-0.0265 2.7e-4,0.007 -0.0126,0.0156 0.002,0.0167 0.0381,0.003 0.0776,-6.3e-4 0.11365,-0.0127 0.0372,-0.0125 0.0733,-0.0279 0.11218,-0.0358 0.0602,-0.0123 0.1216,-0.0199 0.18005,-0.0401 0.0335,-0.0116 0.0667,-0.0235 0.0971,-0.0423 0.0449,-0.0277 0.0945,-0.0474 0.1473,-0.0553 0.0185,-0.003 0.0334,0.01 0.0512,0.0146 0.0249,0.007 0.0478,-0.0119 0.0692,-0.0222 0.0357,-0.0171 0.0589,-0.0507 0.086,-0.0783 0,0 0.004,-0.004 0.004,-0.004 0,0 0.006,-0.007 0.006,-0.007 -0.003,0.005 -0.007,0.016 0.002,0.018 0.0222,0.005 0.0485,0.002 0.0656,-0.0117 0.0304,-0.0244 0.0527,-0.0571 0.0805,-0.0841 0.0227,-0.022 0.0512,-0.0371 0.0779,-0.0537 0,0 0.006,-0.001 0.006,-0.001 -1.6e-4,0.007 -0.007,0.0183 0.004,0.0191 0.0246,0.002 0.0515,-0.003 0.0717,-0.017 0.027,-0.0182 0.0348,-0.0673 0.0725,-0.0644 0.0196,0.001 0.0444,0.0139 0.06,-0.004 0.0105,-0.0123 0.0208,-0.0341 0.0409,-0.0262 0.0201,0.008 0.0303,-0.0141 0.0409,-0.0262 0.0232,-0.0265 0.0595,0.01 0.0856,-0.0138 0.009,-0.008 0.0153,-0.0183 0.0238,-0.0268"
       id="path1027"
       inkscape:connector-curvature="0"
       inkscape:path-effect="#path-effect1029"
       inkscape:original-d="m 99.056766,102.8621 c 0.04454,-0.0111 0.09426,-0.01 0.133635,-0.0334 0.02135,-0.0128 0.0158,-0.0492 0.03341,-0.0668 0.02458,-0.0246 0.147474,-0.0603 0.167045,-0.0668 0.03341,-0.0111 0.06681,-0.0223 0.100224,-0.0334 0.05568,-0.0223 0.110151,-0.0479 0.167045,-0.0668 0.04356,-0.0145 0.09167,-0.0148 0.133633,-0.0334 0.05934,-0.0264 0.107929,-0.0734 0.167045,-0.10023 0.06412,-0.0291 0.135057,-0.0407 0.200447,-0.0668 0.29107,-0.11643 -0.0376,-0.0209 0.30068,-0.13364 0.28388,-0.0946 0.002,0.005 0.23386,-0.0334 0.0347,-0.006 0.0661,-0.0249 0.10023,-0.0334 0.0551,-0.0138 0.11195,-0.0196 0.16704,-0.0334 0.0342,-0.009 0.0668,-0.0223 0.10023,-0.0334 0.0445,-0.0223 0.0858,-0.0531 0.13363,-0.0668 0.15239,-0.0435 0.0507,0.0565 0.20046,-0.0334 0.15208,-0.15209 -0.0138,-0.0177 0.13363,-0.0668 0.0181,-0.006 0.0783,-0.0856 0.10023,-0.10022 0.14591,-0.0973 -0.011,0.0148 0.13363,-0.0334 0.0299,-0.01 0.0386,-0.0527 0.0668,-0.0668 0.0199,-0.01 0.0469,0.01 0.0668,0 0.0141,-0.007 0.0193,-0.0263 0.0334,-0.0334 0.01,-0.005 0.0234,0.005 0.0334,0 0.0141,-0.007 0.0193,-0.0264 0.0334,-0.0334 0.0199,-0.01 0.0469,0.01 0.0668,0 0.0141,-0.007 0.0223,-0.0223 0.0334,-0.0334" />
  </g>
</svg>
